<svg xmlns="http://www.w3.org/2000/svg" xmlns:xlink="http://www.w3.org/1999/xlink" contentStyleType="text/css" data-diagram-type="DESCRIPTION" height="693.75px" preserveAspectRatio="none" style="width:1129px;height:693px;background:#0A192F;" version="1.1" viewBox="0 0 1129 693" width="1129.1667px" zoomAndPan="magnify"><title>&lt;font color="#d4af37" size="24"&gt;Arquitetura do Projeto&lt;/font&gt;</title><defs/><g><rect fill="#0A192F" height="693.75" style="stroke:none;stroke-width:1.0417;" width="1129.1667" x="0" y="0"/><g class="title" data-source-line="13"><rect fill="none" height="52.0182" rx="4.1667" ry="4.1667" style="stroke:#BABDBF;stroke-width:1.0417;" width="341.6667" x="389.2869" y="20.8333"/><text fill="#D4AF37" font-family="'Verdana'" font-size="25" font-weight="bold" lengthAdjust="spacing" textLength="318.75" x="400.7453" y="55.4972">Arquitetura do Projeto</text></g><!--cluster CLIENTE--><g class="cluster" data-entity="CLIENTE" data-source-line="15" data-uid="ent0002" id="cluster_CLIENTE"><path d="M209.375,90.5599 L285.2061,90.5599 A6.25,6.25 0 0 1 289.3728,94.7266 L296.6644,124.2025 L509.375,124.2025 A4.1667,4.1667 0 0 1 513.5417,128.3691 L513.5417,238.6745 A4.1667,4.1667 0 0 1 509.375,242.8411 L209.375,242.8411 A4.1667,4.1667 0 0 1 205.2083,238.6745 L205.2083,94.7266 A4.1667,4.1667 0 0 1 209.375,90.5599" fill="#1A365D" style="stroke:#2FA4E7;stroke-width:2.0833;"/><line style="stroke:#2FA4E7;stroke-width:2.0833;" x1="205.2083" x2="296.6644" y1="124.2025" y2="124.2025"/><text fill="#FFFFFF" font-family="'Verdana'" font-size="14.5833" font-weight="bold" lengthAdjust="spacing" textLength="67.4978" x="214.5833" y="111.3881">CLIENTE</text></g><!--cluster SERVIDOR--><g class="cluster" data-entity="SERVIDOR" data-source-line="25" data-uid="ent0007" id="cluster_SERVIDOR"><path d="M207.2917,305.3411 L299.764,305.3411 A6.25,6.25 0 0 1 303.9307,309.5078 L311.2223,338.9837 L495.8333,338.9837 A4.1667,4.1667 0 0 1 500,343.1504 L500,453.4557 A4.1667,4.1667 0 0 1 495.8333,457.6224 L207.2917,457.6224 A4.1667,4.1667 0 0 1 203.125,453.4557 L203.125,309.5078 A4.1667,4.1667 0 0 1 207.2917,305.3411" fill="#1A365D" style="stroke:#2FA4E7;stroke-width:2.0833;"/><line style="stroke:#2FA4E7;stroke-width:2.0833;" x1="203.125" x2="311.2223" y1="338.9837" y2="338.9837"/><text fill="#FFFFFF" font-family="'Verdana'" font-size="14.5833" font-weight="bold" lengthAdjust="spacing" textLength="84.139" x="212.5" y="326.1694">SERVIDOR</text></g><!--cluster BANCO DE DADOS--><g class="cluster" data-entity="BANCO DE DADOS" data-source-line="35" data-uid="ent0012" id="cluster_BANCO DE DADOS"><path d="M16.6667,530.5391 C16.6667,520.1224 243.75,520.1224 243.75,520.1224 C243.75,520.1224 470.8333,520.1224 470.8333,530.5391 L470.8333,660.6328 C470.8333,671.0495 243.75,671.0495 243.75,671.0495 C243.75,671.0495 16.6667,671.0495 16.6667,660.6328 L16.6667,530.5391" fill="#1A365D" style="stroke:#D4AF37;stroke-width:1.0417;"/><path d="M16.6667,530.5391 C16.6667,540.9557 243.75,540.9557 243.75,540.9557 C243.75,540.9557 470.8333,540.9557 470.8333,530.5391" fill="none" style="stroke:#D4AF37;stroke-width:1.0417;"/><text fill="#FFFFFF" font-family="'Verdana'" font-size="14.5833" font-weight="bold" lengthAdjust="spacing" textLength="148.3256" x="169.5872" y="561.784">BANCO DE DADOS</text></g><!--cluster INFRAESTRUTURA--><g class="cluster" data-entity="INFRAESTRUTURA" data-source-line="45" data-uid="ent0018" id="cluster_INFRAESTRUTURA"><path d="M541.6649,334.6754 C553.5953,309.855 566.5978,309.1273 584.3539,329.1267 C596.6172,311.4827 613.567,311.7909 623.1422,331.8892 C633.8078,312.5995 652.1339,315.6967 660.7921,333.9047 C668.037,312.6581 682.3627,309.6647 697.0563,326.8822 C708.1599,311.1931 727.3058,310.7706 735.5939,329.9904 C747.7599,311.1557 764.3381,309.9426 775.2475,331.2324 C785.9879,313.2519 798.6383,306.0024 814.657,325.7134 C825.4138,309.6287 842.1268,313.2108 849.8285,329.0765 C862.5293,309.9248 877.7046,308.9151 892.2424,326.983 C906.4213,307.8973 919.6135,311.9354 930.6354,330.2259 C940.0986,314.2206 957.4066,314.8019 967.1419,329.9066 C980.3779,308.6981 995.7794,314.1978 1006.9351,332.0271 C1015.9276,313.6595 1026.6331,315.7489 1038.9954,328.5622 C1055.4037,311.22 1074.4257,314.0496 1084.375,336.0182 C1087.0923,336.836 1088.0882,339.6102 1085.88,341.7266 C1108.3332,346.5144 1117.1155,366.6115 1098.8511,383.9175 C1115.774,407.6158 1107.9698,431.2206 1077.0833,434.237 C1081.4024,433.4569 1084.703,435.3314 1083.2414,440.3626 C1070.2012,462.0244 1052.2312,461.1664 1041.7427,438.0004 C1029.1876,457.164 1014.3145,460.1023 1000.8342,438.939 C993.8806,458.3375 976.726,456.1088 966.8212,441.9283 C957.3566,460.6388 940.8948,460.5742 929.1896,444.3414 C920.2552,463.0383 902.7026,464.241 891.9711,446.1601 C878.3703,464.1763 862.0036,465.6788 850.9746,443.5347 C839.9245,459.1693 826.3573,464.9489 813.8788,445.0249 C800.1169,464.5504 784.8817,463.146 771.4324,444.6757 C758.8447,462.955 742.326,457.416 733.3593,440.7325 C722.8964,456.375 706.454,461.4553 695.4077,441.3518 C682.8812,455.3854 669.3397,457.0941 659.3852,438.5113 C646.3235,455.0286 631.998,455.6703 618.9524,438.4919 C607.4528,454.4134 595.1877,457.8125 581.5109,440.9807 C560.45,459.4141 541.7277,451.9906 533.3333,426.9453 C536.6445,428.6052 537.045,430.6396 534.0723,433.0591 C506.3454,420.3605 506.8928,404.5737 527.7341,385.4141 C502.9809,364.6917 510.9007,337.0606 540.625,328.7266 C544.1102,329.8279 544.453,332.4776 541.6649,334.6754" fill="#1A365D" style="stroke:#D4AF37;stroke-width:1.0417;"/><text fill="#FFFFFF" font-family="'Verdana'" font-size="14.5833" font-weight="bold" lengthAdjust="spacing" textLength="147.8984" x="734.905" y="352.6798">INFRAESTRUTURA</text></g><!--entity browser--><g class="entity" data-entity="browser" data-source-line="16" data-uid="ent0003" id="entity_browser"><rect fill="#1A365D" height="58.6426" rx="4.1667" ry="4.1667" style="stroke:#D4AF37;stroke-width:1.0417;" width="111.499" x="222.375" y="152.487"/><rect fill="#1A365D" height="10.4167" style="stroke:#D4AF37;stroke-width:1.0417;" width="15.625" x="313.0407" y="157.6953"/><rect fill="#1A365D" height="2.0833" style="stroke:#D4AF37;stroke-width:1.0417;" width="4.1667" x="310.9574" y="159.7786"/><rect fill="#1A365D" height="2.0833" style="stroke:#D4AF37;stroke-width:1.0417;" width="4.1667" x="310.9574" y="163.9453"/><text fill="#FFFFFF" font-family="'Verdana'" font-size="14.5833" lengthAdjust="spacing" textLength="59.4157" x="243.2083" y="192.0652">Browser</text></g><g class="entity" data-entity="GMN4" data-source-line="18" data-uid="ent0005" id="entity_GMN4"><path d="M370.3125,141.6016 L370.3125,177.6432 L334.2083,181.8099 L370.3125,185.9766 L370.3125,222.0052 A4.1667,4.1667 0 0 0 374.4792,226.1719 L492.1967,226.1719 A4.1667,4.1667 0 0 0 496.3633,222.0052 L496.3633,147.8516 L485.9467,137.4349 L374.4792,137.4349 A4.1667,4.1667 0 0 0 370.3125,141.6016" fill="none" style="stroke:#033C73;stroke-width:1.0417;"/><path d="M485.9467,137.4349 L485.9467,145.7682 A2.0833,2.0833 0 0 0 488.03,147.8516 L496.3633,147.8516 L485.9467,137.4349" fill="none" style="stroke:#033C73;stroke-width:1.0417;"/><text fill="#D4AF37" font-family="'Verdana'" font-size="14.5833" lengthAdjust="spacing" textLength="50.5147" x="381.7708" y="161.3881">Next.js</text><text fill="#FFFFFF" font-family="'Verdana'" font-size="14.5833" lengthAdjust="spacing" textLength="41.7775" x="381.7708" y="178.3641">React</text><text fill="#FFFFFF" font-family="'Verdana'" font-size="14.5833" lengthAdjust="spacing" textLength="78.065" x="381.7708" y="195.34">TypeScript</text><text fill="#FFFFFF" font-family="'Verdana'" font-size="14.5833" lengthAdjust="spacing" textLength="93.7592" x="381.7708" y="212.3159">Tailwind CSS</text></g><!--entity api--><g class="entity" data-entity="api" data-source-line="26" data-uid="ent0008" id="entity_api"><rect fill="#1A365D" height="58.6426" rx="4.1667" ry="4.1667" style="stroke:#D4AF37;stroke-width:1.0417;" width="117.3024" x="219.4688" y="367.2682"/><rect fill="#1A365D" height="10.4167" style="stroke:#D4AF37;stroke-width:1.0417;" width="15.625" x="315.9379" y="372.4766"/><rect fill="#1A365D" height="2.0833" style="stroke:#D4AF37;stroke-width:1.0417;" width="4.1667" x="313.8545" y="374.5599"/><rect fill="#1A365D" height="2.0833" style="stroke:#D4AF37;stroke-width:1.0417;" width="4.1667" x="313.8545" y="378.7266"/><text fill="#FFFFFF" font-family="'Verdana'" font-size="14.5833" lengthAdjust="spacing" textLength="65.2191" x="240.3021" y="406.8465">API REST</text></g><g class="entity" data-entity="GMN9" data-source-line="28" data-uid="ent0010" id="entity_GMN9"><path d="M372.9479,356.3828 L372.9479,392.4245 L337.0104,396.5911 L372.9479,400.7578 L372.9479,436.7865 A4.1667,4.1667 0 0 0 377.1146,440.9531 L479.1379,440.9531 A4.1667,4.1667 0 0 0 483.3046,436.7865 L483.3046,362.6328 L472.8879,352.2161 L377.1146,352.2161 A4.1667,4.1667 0 0 0 372.9479,356.3828" fill="none" style="stroke:#033C73;stroke-width:1.0417;"/><path d="M472.8879,352.2161 L472.8879,360.5495 A2.0833,2.0833 0 0 0 474.9712,362.6328 L483.3046,362.6328 L472.8879,352.2161" fill="none" style="stroke:#033C73;stroke-width:1.0417;"/><text fill="#D4AF37" font-family="'Verdana'" font-size="14.5833" lengthAdjust="spacing" textLength="46.755" x="384.4063" y="376.1694">NestJS</text><text fill="#FFFFFF" font-family="'Verdana'" font-size="14.5833" lengthAdjust="spacing" textLength="54.3457" x="384.4063" y="393.1453">Node.js</text><text fill="#FFFFFF" font-family="'Verdana'" font-size="14.5833" lengthAdjust="spacing" textLength="78.065" x="384.4063" y="410.1212">TypeScript</text><text fill="#FFFFFF" font-family="'Verdana'" font-size="14.5833" lengthAdjust="spacing" textLength="64.3361" x="384.4063" y="427.0971">GraphQL</text></g><!--entity pg--><g class="entity" data-entity="pg" data-source-line="36" data-uid="ent0013" id="entity_pg"><rect fill="#1A365D" height="58.6426" rx="4.1667" ry="4.1667" style="stroke:#D4AF37;stroke-width:1.0417;" width="136.201" x="32.9375" y="589.1849"/><rect fill="#1A365D" height="10.4167" style="stroke:#D4AF37;stroke-width:1.0417;" width="15.625" x="148.3051" y="594.3932"/><rect fill="#1A365D" height="2.0833" style="stroke:#D4AF37;stroke-width:1.0417;" width="4.1667" x="146.2218" y="596.4766"/><rect fill="#1A365D" height="2.0833" style="stroke:#D4AF37;stroke-width:1.0417;" width="4.1667" x="146.2218" y="600.6432"/><text fill="#FFFFFF" font-family="'Verdana'" font-size="14.5833" lengthAdjust="spacing" textLength="84.1176" x="53.7708" y="628.7631">PostgreSQL</text></g><!--entity redis--><g class="entity" data-entity="redis" data-source-line="37" data-uid="ent0014" id="entity_redis"><rect fill="#1A365D" height="58.6426" rx="4.1667" ry="4.1667" style="stroke:#D4AF37;stroke-width:1.0417;" width="92.0949" x="362.2813" y="589.1849"/><rect fill="#1A365D" height="10.4167" style="stroke:#D4AF37;stroke-width:1.0417;" width="15.625" x="433.5428" y="594.3932"/><rect fill="#1A365D" height="2.0833" style="stroke:#D4AF37;stroke-width:1.0417;" width="4.1667" x="431.4595" y="596.4766"/><rect fill="#1A365D" height="2.0833" style="stroke:#D4AF37;stroke-width:1.0417;" width="4.1667" x="431.4595" y="600.6432"/><text fill="#FFFFFF" font-family="'Verdana'" font-size="14.5833" lengthAdjust="spacing" textLength="40.0116" x="383.1146" y="628.7631">Redis</text></g><g class="entity" data-entity="GMN15" data-source-line="39" data-uid="ent0016" id="entity_GMN15"><path d="M205.2708,586.7891 L205.2708,614.3307 L169.5104,618.4974 L205.2708,622.6641 L205.2708,650.2168 A4.1667,4.1667 0 0 0 209.4375,654.3835 L321.8073,654.3835 A4.1667,4.1667 0 0 0 325.974,650.2168 L325.974,593.0391 L315.5573,582.6224 L209.4375,582.6224 A4.1667,4.1667 0 0 0 205.2708,586.7891" fill="none" style="stroke:#033C73;stroke-width:1.0417;"/><path d="M315.5573,582.6224 L315.5573,590.9557 A2.0833,2.0833 0 0 0 317.6406,593.0391 L325.974,593.0391 L315.5573,582.6224" fill="none" style="stroke:#033C73;stroke-width:1.0417;"/><text fill="#FFFFFF" font-family="'Verdana'" font-size="14.5833" lengthAdjust="spacing" textLength="88.4115" x="216.7292" y="606.5756">Prisma ORM</text><text fill="#FFFFFF" font-family="'Verdana'" font-size="14.5833" lengthAdjust="spacing" textLength="76.356" x="216.7292" y="623.5516">Migrations</text><text fill="#FFFFFF" font-family="'Verdana'" font-size="14.5833" lengthAdjust="spacing" textLength="61.5021" x="216.7292" y="640.5275">Backups</text></g><!--entity vps--><g class="entity" data-entity="vps" data-source-line="46" data-uid="ent0019" id="entity_vps"><rect fill="#1A365D" height="58.6426" rx="4.1667" ry="4.1667" style="stroke:#D4AF37;stroke-width:1.0417;" width="80.1107" x="541.1979" y="367.2682"/><rect fill="#1A365D" height="10.4167" style="stroke:#D4AF37;stroke-width:1.0417;" width="15.625" x="600.4753" y="372.4766"/><rect fill="#1A365D" height="2.0833" style="stroke:#D4AF37;stroke-width:1.0417;" width="4.1667" x="598.3919" y="374.5599"/><rect fill="#1A365D" height="2.0833" style="stroke:#D4AF37;stroke-width:1.0417;" width="4.1667" x="598.3919" y="378.7266"/><text fill="#FFFFFF" font-family="'Verdana'" font-size="14.5833" lengthAdjust="spacing" textLength="28.0273" x="562.0313" y="406.8465">VPS</text></g><!--entity docker--><g class="entity" data-entity="docker" data-source-line="47" data-uid="ent0020" id="entity_docker"><rect fill="#1A365D" height="58.6426" rx="4.1667" ry="4.1667" style="stroke:#D4AF37;stroke-width:1.0417;" width="103.6662" x="657.5417" y="367.2682"/><rect fill="#1A365D" height="10.4167" style="stroke:#D4AF37;stroke-width:1.0417;" width="15.625" x="740.3745" y="372.4766"/><rect fill="#1A365D" height="2.0833" style="stroke:#D4AF37;stroke-width:1.0417;" width="4.1667" x="738.2912" y="374.5599"/><rect fill="#1A365D" height="2.0833" style="stroke:#D4AF37;stroke-width:1.0417;" width="4.1667" x="738.2912" y="378.7266"/><text fill="#FFFFFF" font-family="'Verdana'" font-size="14.5833" lengthAdjust="spacing" textLength="51.5828" x="678.375" y="406.8465">Docker</text></g><!--entity cf--><g class="entity" data-entity="cf" data-source-line="48" data-uid="ent0021" id="entity_cf"><rect fill="#1A365D" height="58.6426" rx="4.1667" ry="4.1667" style="stroke:#D4AF37;stroke-width:1.0417;" width="126.83" x="798.0417" y="367.2682"/><rect fill="#1A365D" height="10.4167" style="stroke:#D4AF37;stroke-width:1.0417;" width="15.625" x="904.0384" y="372.4766"/><rect fill="#1A365D" height="2.0833" style="stroke:#D4AF37;stroke-width:1.0417;" width="4.1667" x="901.955" y="374.5599"/><rect fill="#1A365D" height="2.0833" style="stroke:#D4AF37;stroke-width:1.0417;" width="4.1667" x="901.955" y="378.7266"/><text fill="#FFFFFF" font-family="'Verdana'" font-size="14.5833" lengthAdjust="spacing" textLength="74.7467" x="818.875" y="406.8465">Cloudflare</text></g><!--entity dns--><g class="entity" data-entity="dns" data-source-line="49" data-uid="ent0022" id="entity_dns"><rect fill="#1A365D" height="58.6426" rx="4.1667" ry="4.1667" style="stroke:#D4AF37;stroke-width:1.0417;" width="115.0309" x="961.2396" y="367.2682"/><rect fill="#1A365D" height="10.4167" style="stroke:#D4AF37;stroke-width:1.0417;" width="15.625" x="1055.4372" y="372.4766"/><rect fill="#1A365D" height="2.0833" style="stroke:#D4AF37;stroke-width:1.0417;" width="4.1667" x="1053.3538" y="374.5599"/><rect fill="#1A365D" height="2.0833" style="stroke:#D4AF37;stroke-width:1.0417;" width="4.1667" x="1053.3538" y="378.7266"/><text fill="#FFFFFF" font-family="'Verdana'" font-size="14.5833" lengthAdjust="spacing" textLength="62.9476" x="982.0729" y="406.8465">DNS/SSL</text></g><!--link browser to api--><g class="link" data-entity-1="browser" data-entity-2="api" data-source-line="52" data-uid="lnk23" id="link_browser_api"><path d="M278.125,211.5391 C278.125,252.2474 278.125,320.0807 278.125,360.7266" fill="none" id="browser-to-api" style="stroke:#D4AF37;stroke-width:3.125;"/><polygon fill="#D4AF37" points="278.125,366.9766,282.2917,357.6016,278.125,361.7682,273.9583,357.6016,278.125,366.9766" style="stroke:#D4AF37;stroke-width:3.125;"/><text fill="#D4AF37" font-family="'Verdana'" font-size="14.5833" lengthAdjust="spacing" textLength="46.8333" x="284.375" y="279.2944">HTTPS</text></g><!--link api to pg--><g class="link" data-entity-1="api" data-entity-2="pg" data-source-line="53" data-uid="lnk24" id="link_api_pg"><path d="M254.9792,426.3724 C221.0417,468.4974 162.0559,541.7132 128.1184,583.8487" fill="none" id="api-to-pg" style="stroke:#D4AF37;stroke-width:3.125;"/><polygon fill="#D4AF37" points="124.1979,588.7161,133.3236,584.0286,127.465,584.6599,126.8336,578.8013,124.1979,588.7161" style="stroke:#D4AF37;stroke-width:3.125;"/><text fill="#D4AF37" font-family="'Verdana'" font-size="14.5833" lengthAdjust="spacing" textLength="56.311" x="222.0417" y="494.0756">Queries</text></g><!--link api to redis--><g class="link" data-entity-1="api" data-entity-2="redis" data-source-line="54" data-uid="lnk25" id="link_api_redis"><path d="M295.1458,426.3724 C320.1042,468.4974 363.1699,541.2027 388.1178,583.3381" fill="none" id="api-to-redis" style="stroke:#D4AF37;stroke-width:3.125;"/><polygon fill="#D4AF37" points="391.3021,588.7161,390.111,578.5263,388.6485,584.2345,382.9404,582.772,391.3021,588.7161" style="stroke:#D4AF37;stroke-width:3.125;"/><text fill="#D4AF37" font-family="'Verdana'" font-size="14.5833" lengthAdjust="spacing" textLength="45.3522" x="345.5729" y="494.0756">Cache</text></g><!--link api to vps--><g class="link" data-entity-1="api" data-entity-2="vps" data-source-line="55" data-uid="lnk26" id="link_api_vps"><path d="M291.3333,366.8411 C306.3958,337.0703 334.125,293.0599 373.4375,274.0911 C416.8021,253.1745 438.3021,253.3932 481.7708,274.0911 C521.8438,293.1745 548.0633,331.6533 564.105,361.3825" fill="none" id="api-to-vps" style="stroke:#D4AF37;stroke-width:3.125;"/><polygon fill="#D4AF37" points="567.0729,366.8828,566.2879,356.6537,564.5996,362.2992,558.9541,360.6109,567.0729,366.8828" style="stroke:#D4AF37;stroke-width:3.125;"/></g><!--link vps to docker--><g class="link" data-entity-1="vps" data-entity-2="docker" data-source-line="56" data-uid="lnk27" id="link_vps_docker"><path d="M621.7917,396.5911 C633.5313,396.5911 639.0313,396.5911 650.7813,396.5911" fill="none" id="vps-to-docker" style="stroke:#D4AF37;stroke-width:3.125;"/><polygon fill="#D4AF37" points="657.0313,396.5911,647.6563,392.4245,651.8229,396.5911,647.6563,400.7578,657.0313,396.5911" style="stroke:#D4AF37;stroke-width:3.125;"/></g><!--link docker to cf--><g class="link" data-entity-1="docker" data-entity-2="cf" data-source-line="57" data-uid="lnk28" id="link_docker_cf"><path d="M761.6563,396.5911 C773.7396,396.5911 779.5729,396.5911 791.6563,396.5911" fill="none" id="docker-to-cf" style="stroke:#D4AF37;stroke-width:3.125;"/><polygon fill="#D4AF37" points="797.9063,396.5911,788.5313,392.4245,792.6979,396.5911,788.5313,400.7578,797.9063,396.5911" style="stroke:#D4AF37;stroke-width:3.125;"/></g><!--link cf to dns--><g class="link" data-entity-1="cf" data-entity-2="dns" data-source-line="58" data-uid="lnk29" id="link_cf_dns"><path d="M925.3542,396.5911 C937.1563,396.5911 942.6979,396.5911 954.5,396.5911" fill="none" id="cf-to-dns" style="stroke:#D4AF37;stroke-width:3.125;"/><polygon fill="#D4AF37" points="960.75,396.5911,951.375,392.4245,955.5417,396.5911,951.375,400.7578,960.75,396.5911" style="stroke:#D4AF37;stroke-width:3.125;"/></g><!--SRC=[ZPBTSfim48NlUOejlKvJ9suxxIIUmU2qxZZOHYGtcLx8QC6ACQAIYFipVVSA6IUKuBQUORpQFKVwTgKNUerRX0HbbICjJaIbSrwWepQyAAcaMrZHP9D9KHNC5xcGyF8r7Rm_IriAXYcjSdqb2jr8Kllhbn3-0s4mR1KzASMkSR8XJS_VjOg-s9QYm4AFknm3Ulxs3UkL2ibG7jine9gkgC9_R_Ye_Ej-VYugzXzqLjQpawEvpX4kKZCSIEhIfTlKN51cMfVksT0TUV9hnJNgIb9W0XPItACM5wUrRUGufG6W6OBhpwQJC9wu1mJuwG3SZSs85SelG1Mizh595q8ZI9wjDOYqbOT-cb68t_IhUtKuj1P6I1Dje_XxYIIHl6oMbESxNZ3m2J49D55zdFEhnKecqUqqc4STM6ynXMX2OajBI_wCT9yxJgdqPzA630L3mzs7-L7IShsSTGXPS_FWZhtGdqCmWS0BvgG3kX1APnB9ScPHownEHiYuicjPHy_WhGhC1NArfJ2FhktoccUIQYwAFMNzdgfITR2I-Ws1Emsl8i_C9xg9RoAlmtIx8FRm1-k-2qIoQUwTsR1EshUOvbIYBIIfLORab91z9ynWcFEQ5m4dJEoAar4zT_XmPEgVudZnEFHQU32LsL7FiaB9KVMvxEoE6dsQhF4FcnslyTLjc-yfqNIz_tjAcvwJjAKo3Vy6]--></g></svg>