<svg xmlns="http://www.w3.org/2000/svg" xmlns:xlink="http://www.w3.org/1999/xlink" contentStyleType="text/css" data-diagram-type="ACTIVITY" height="775px" preserveAspectRatio="none" style="width:720px;height:775px;background:#0A192F;" version="1.1" viewBox="0 0 720 775" width="720.8333px" zoomAndPan="magnify"><title>&lt;font color="#d4af37" size="24"&gt;Ciclo de Entrega Continua&lt;/font&gt;</title><defs><linearGradient id="gbn5e9m8jp4070" x1="50%" x2="50%" y1="0%" y2="100%"><stop offset="0%" stop-color="#EDF0F2"/><stop offset="100%" stop-color="#E9ECEF"/></linearGradient></defs><g><rect fill="#0A192F" height="775" style="stroke:none;stroke-width:1.0417;" width="720.8333" x="0" y="0"/><g class="title" data-source-line="8"><rect fill="none" height="52.0182" rx="4.1667" ry="4.1667" style="stroke:#BABDBF;stroke-width:1.0417;" width="388.5417" x="164.7191" y="20.8333"/><text fill="#D4AF37" font-family="'Verdana'" font-size="25" font-weight="bold" lengthAdjust="spacing" textLength="365.625" x="176.1775" y="55.4972">Ciclo de Entrega Continua</text></g><rect fill="url(#gbn5e9m8jp4070)" height="24.9674" style="stroke:url(#gbn5e9m8jp4070);stroke-width:1.0417;" width="686.7299" x="15.625" y="85.3516"/><ellipse cx="94.75" cy="125.944" fill="#033C73" rx="10.4167" ry="10.4167" style="stroke:#2683B9;stroke-width:1.0417;"/><rect fill="#1A365D" height="37.4674" rx="4.1667" ry="4.1667" style="stroke:#D4AF37;stroke-width:1.0417;" width="145.7499" x="21.875" y="157.194"/><text fill="#FFFFFF" font-family="'Verdana'" font-size="12.5" lengthAdjust="spacing" textLength="122.8333" x="33.3333" y="180.2551">Figma / Wireframes</text><rect fill="#1A365D" height="37.4674" rx="4.1667" ry="4.1667" style="stroke:#D4AF37;stroke-width:1.0417;" width="68.4794" x="60.5103" y="681.901"/><text fill="#FFFFFF" font-family="'Verdana'" font-size="12.5" lengthAdjust="spacing" textLength="45.5627" x="71.9686" y="704.9622">Ajustes</text><ellipse cx="94.75" cy="751.6602" fill="none" rx="11.4583" ry="11.4583" style="stroke:#2683B9;stroke-width:1.0417;"/><ellipse cx="94.75" cy="751.6602" fill="none" rx="6.25" ry="6.25" style="stroke:#2683B9;stroke-width:1.0417;"/><line style="stroke:#033C73;stroke-width:2.0833;" x1="15.625" x2="15.625" y1="85.3516" y2="763.1185"/><rect fill="#1A365D" height="37.4674" rx="4.1667" ry="4.1667" style="stroke:#D4AF37;stroke-width:1.0417;" width="132.0841" x="178.0416" y="215.4948"/><text fill="#FFFFFF" font-family="'Verdana'" font-size="12.5" lengthAdjust="spacing" textLength="109.1675" x="189.4999" y="238.5559">Desenvolvimento</text><rect fill="#1A365D" height="37.4674" rx="4.1667" ry="4.1667" style="stroke:#D4AF37;stroke-width:1.0417;" width="104.0507" x="192.0583" y="273.7956"/><text fill="#FFFFFF" font-family="'Verdana'" font-size="12.5" lengthAdjust="spacing" textLength="81.134" x="203.5166" y="296.8567">Code Review</text><line style="stroke:#033C73;stroke-width:2.0833;" x1="171.7916" x2="171.7916" y1="85.3516" y2="763.1185"/><rect fill="#1A365D" height="37.4674" rx="4.1667" ry="4.1667" style="stroke:#D4AF37;stroke-width:1.0417;" width="106.9621" x="320.5424" y="332.0964"/><text fill="#FFFFFF" font-family="'Verdana'" font-size="12.5" lengthAdjust="spacing" textLength="84.0454" x="332.0007" y="355.1575">Testes Locais</text><rect fill="#1A365D" height="37.4674" rx="4.1667" ry="4.1667" style="stroke:#D4AF37;stroke-width:1.0417;" width="83.8481" x="332.0994" y="390.3971"/><text fill="#FFFFFF" font-family="'Verdana'" font-size="12.5" lengthAdjust="spacing" textLength="60.9314" x="343.5577" y="413.4583">Validacao</text><line style="stroke:#033C73;stroke-width:2.0833;" x1="314.2924" x2="314.2924" y1="85.3516" y2="763.1185"/><rect fill="#1A365D" height="37.4674" rx="4.1667" ry="4.1667" style="stroke:#D4AF37;stroke-width:1.0417;" width="125.2665" x="437.9211" y="448.6979"/><text fill="#FFFFFF" font-family="'Verdana'" font-size="12.5" lengthAdjust="spacing" textLength="102.3499" x="449.3795" y="471.759">Build Production</text><rect fill="#1A365D" height="37.4674" rx="4.1667" ry="4.1667" style="stroke:#D4AF37;stroke-width:1.0417;" width="94.6818" x="453.2135" y="506.9987"/><text fill="#FFFFFF" font-family="'Verdana'" font-size="12.5" lengthAdjust="spacing" textLength="71.7651" x="464.6718" y="530.0598">Deploy VPS</text><line style="stroke:#033C73;stroke-width:2.0833;" x1="431.6711" x2="431.6711" y1="85.3516" y2="763.1185"/><rect fill="#1A365D" height="37.4674" rx="4.1667" ry="4.1667" style="stroke:#D4AF37;stroke-width:1.0417;" width="118.4306" x="573.6043" y="565.2995"/><text fill="#FFFFFF" font-family="'Verdana'" font-size="12.5" lengthAdjust="spacing" textLength="95.5139" x="585.0627" y="588.3606">Monitoramento</text><rect fill="#1A365D" height="37.4674" rx="4.1667" ry="4.1667" style="stroke:#D4AF37;stroke-width:1.0417;" width="83.1278" x="591.2557" y="623.6003"/><text fill="#FFFFFF" font-family="'Verdana'" font-size="12.5" lengthAdjust="spacing" textLength="60.2112" x="602.714" y="646.6614">Feedback</text><line style="stroke:#033C73;stroke-width:2.0833;" x1="567.3543" x2="567.3543" y1="85.3516" y2="763.1185"/><line style="stroke:#033C73;stroke-width:2.0833;" x1="696.2016" x2="696.2016" y1="85.3516" y2="763.1185"/><line style="stroke:#D4AF37;stroke-width:3.125;" x1="94.75" x2="94.75" y1="136.3607" y2="157.194"/><polygon fill="#D4AF37" points="90.5833,146.7773,94.75,157.194,98.9166,146.7773,94.75,150.944" style="stroke:#D4AF37;stroke-width:1.0417;"/><line style="stroke:#D4AF37;stroke-width:3.125;" x1="94.75" x2="94.75" y1="719.3685" y2="740.2018"/><polygon fill="#D4AF37" points="90.5833,729.7852,94.75,740.2018,98.9166,729.7852,94.75,733.9518" style="stroke:#D4AF37;stroke-width:1.0417;"/><line style="stroke:#D4AF37;stroke-width:3.125;" x1="244.0837" x2="244.0837" y1="252.9622" y2="273.7956"/><polygon fill="#D4AF37" points="239.917,263.3789,244.0837,273.7956,248.2503,263.3789,244.0837,267.5456" style="stroke:#D4AF37;stroke-width:1.0417;"/><line style="stroke:#D4AF37;stroke-width:3.125;" x1="374.0234" x2="374.0234" y1="369.5638" y2="390.3971"/><polygon fill="#D4AF37" points="369.8568,379.9805,374.0234,390.3971,378.1901,379.9805,374.0234,384.1471" style="stroke:#D4AF37;stroke-width:1.0417;"/><line style="stroke:#D4AF37;stroke-width:3.125;" x1="500.5544" x2="500.5544" y1="486.1654" y2="506.9987"/><polygon fill="#D4AF37" points="496.3877,496.582,500.5544,506.9987,504.7211,496.582,500.5544,500.7487" style="stroke:#D4AF37;stroke-width:1.0417;"/><line style="stroke:#D4AF37;stroke-width:3.125;" x1="632.8196" x2="632.8196" y1="602.7669" y2="623.6003"/><polygon fill="#D4AF37" points="628.653,613.1836,632.8196,623.6003,636.9863,613.1836,632.8196,617.3503" style="stroke:#D4AF37;stroke-width:1.0417;"/><line style="stroke:#D4AF37;stroke-width:3.125;" x1="94.75" x2="94.75" y1="194.6615" y2="199.8698"/><line style="stroke:#D4AF37;stroke-width:3.125;" x1="94.75" x2="244.0837" y1="199.8698" y2="199.8698"/><line style="stroke:#D4AF37;stroke-width:3.125;" x1="244.0837" x2="244.0837" y1="199.8698" y2="215.4948"/><polygon fill="#D4AF37" points="239.917,205.0781,244.0837,215.4948,248.2503,205.0781,244.0837,209.2448" style="stroke:#D4AF37;stroke-width:1.0417;"/><line style="stroke:#D4AF37;stroke-width:3.125;" x1="244.0837" x2="244.0837" y1="311.263" y2="316.4714"/><line style="stroke:#D4AF37;stroke-width:3.125;" x1="244.0837" x2="374.0234" y1="316.4714" y2="316.4714"/><line style="stroke:#D4AF37;stroke-width:3.125;" x1="374.0234" x2="374.0234" y1="316.4714" y2="332.0964"/><polygon fill="#D4AF37" points="369.8568,321.6797,374.0234,332.0964,378.1901,321.6797,374.0234,325.8464" style="stroke:#D4AF37;stroke-width:1.0417;"/><line style="stroke:#D4AF37;stroke-width:3.125;" x1="374.0234" x2="374.0234" y1="427.8646" y2="433.0729"/><line style="stroke:#D4AF37;stroke-width:3.125;" x1="374.0234" x2="500.5544" y1="433.0729" y2="433.0729"/><line style="stroke:#D4AF37;stroke-width:3.125;" x1="500.5544" x2="500.5544" y1="433.0729" y2="448.6979"/><polygon fill="#D4AF37" points="496.3877,438.2813,500.5544,448.6979,504.7211,438.2813,500.5544,442.4479" style="stroke:#D4AF37;stroke-width:1.0417;"/><line style="stroke:#D4AF37;stroke-width:3.125;" x1="500.5544" x2="500.5544" y1="544.4661" y2="549.6745"/><line style="stroke:#D4AF37;stroke-width:3.125;" x1="500.5544" x2="632.8196" y1="549.6745" y2="549.6745"/><line style="stroke:#D4AF37;stroke-width:3.125;" x1="632.8196" x2="632.8196" y1="549.6745" y2="565.2995"/><polygon fill="#D4AF37" points="628.653,554.8828,632.8196,565.2995,636.9863,554.8828,632.8196,559.0495" style="stroke:#D4AF37;stroke-width:1.0417;"/><line style="stroke:#D4AF37;stroke-width:3.125;" x1="632.8196" x2="632.8196" y1="661.0677" y2="666.276"/><line style="stroke:#D4AF37;stroke-width:3.125;" x1="632.8196" x2="94.75" y1="666.276" y2="666.276"/><line style="stroke:#D4AF37;stroke-width:3.125;" x1="94.75" x2="94.75" y1="666.276" y2="681.901"/><polygon fill="#D4AF37" points="90.5833,671.4844,94.75,681.901,98.9166,671.4844,94.75,675.651" style="stroke:#D4AF37;stroke-width:1.0417;"/><text fill="#FFFFFF" font-family="'Verdana'" font-size="12.5" lengthAdjust="spacing" textLength="43.158" x="72.1293" y="102.1627">Design</text><text fill="#FFFFFF" font-family="'Verdana'" font-size="12.5" lengthAdjust="spacing" textLength="31.3782" x="227.3529" y="102.1627">Build</text><text fill="#FFFFFF" font-family="'Verdana'" font-size="12.5" lengthAdjust="spacing" textLength="26.7395" x="359.612" y="102.1627">Test</text><text fill="#FFFFFF" font-family="'Verdana'" font-size="12.5" lengthAdjust="spacing" textLength="43.7683" x="477.6286" y="102.1627">Deploy</text><text fill="#FFFFFF" font-family="'Verdana'" font-size="12.5" lengthAdjust="spacing" textLength="47.5159" x="608.02" y="102.1627">Monitor</text><!--SRC=[RP7BJiCm44Nt_WeJrWZw04JILce3NO5K0Ihh8Pw4eOwdygDLKJyUkmfIG7Wpbk_nlUFncV_05cM5DcW4Sy71Qp8et8RC5YoqyXsgJMCv65MoPYlFhs1mDwnxXC8QWlPBDhv3wjFg8VFAquxyOV7NR02Zcslr7ybMeUqeDOPwTDkdhENzRr5uyXhbf8vjo2f9qwpJCkde2wVPS9pDIgeqnvRbW_4M6v1bvCa4c5occpCXZlVeg357uJnOB_8bDIt8I_b65kiOZgw8q2AGLaUHHnZDZlMEMZIU2v6N7DsVSKUuJ-0hEX-vLD39Hww0ea6-1aqAAk3YbBZLV8ZKoLMkBAiGvy2cI059a-lLIoAVs91d6z5k1p-nIqIL_ghelI2VVuOK6y-Svwtu1W00]--></g></svg>