<svg xmlns="http://www.w3.org/2000/svg" xmlns:xlink="http://www.w3.org/1999/xlink" contentStyleType="text/css" data-diagram-type="DESCRIPTION" height="597.9167px" preserveAspectRatio="none" style="width:1207px;height:597px;background:#0A192F;" version="1.1" viewBox="0 0 1207 597" width="1207.2917px" zoomAndPan="magnify"><title>&lt;font color="#d4af37" size="24"&gt;Stack Completa&lt;/font&gt;</title><defs/><g><rect fill="#0A192F" height="597.9167" style="stroke:none;stroke-width:1.0417;" width="1207.2917" x="0" y="0"/><g class="title" data-source-line="9"><rect fill="none" height="52.0182" rx="4.1667" ry="4.1667" style="stroke:#BABDBF;stroke-width:1.0417;" width="243.7052" x="477.1057" y="20.8333"/><text fill="#D4AF37" font-family="'Verdana'" font-size="25" font-weight="bold" lengthAdjust="spacing" textLength="220.7886" x="488.564" y="55.4972">Stack Completa</text></g><!--cluster FRONTEND--><g class="cluster" data-entity="FRONTEND" data-source-line="11" data-uid="ent0002" id="cluster_FRONTEND"><path d="M20.8333,90.5599 L106.3212,90.5599 A6.25,6.25 0 0 1 110.4879,94.7266 L117.7795,121.7773 L435.4167,121.7773 A4.1667,4.1667 0 0 1 439.5833,125.944 L439.5833,321.7474 A4.1667,4.1667 0 0 1 435.4167,325.9141 L20.8333,325.9141 A4.1667,4.1667 0 0 1 16.6667,321.7474 L16.6667,94.7266 A4.1667,4.1667 0 0 1 20.8333,90.5599" fill="#1A365D" style="stroke:#D4AF37;stroke-width:2.0833;"/><line style="stroke:#D4AF37;stroke-width:2.0833;" x1="16.6667" x2="117.7795" y1="121.7773" y2="121.7773"/><text fill="#FFFFFF" font-family="'Verdana'" font-size="12.5" font-weight="bold" lengthAdjust="spacing" textLength="77.1545" x="26.0417" y="109.4543">FRONTEND</text></g><!--cluster BACKEND--><g class="cluster" data-entity="BACKEND" data-source-line="19" data-uid="ent0008" id="cluster_BACKEND"><path d="M468.75,90.5599 L544.5211,90.5599 A6.25,6.25 0 0 1 548.6877,94.7266 L555.9794,121.7773 L859.375,121.7773 A4.1667,4.1667 0 0 1 863.5417,125.944 L863.5417,321.7474 A4.1667,4.1667 0 0 1 859.375,325.9141 L468.75,325.9141 A4.1667,4.1667 0 0 1 464.5833,321.7474 L464.5833,94.7266 A4.1667,4.1667 0 0 1 468.75,90.5599" fill="#1A365D" style="stroke:#D4AF37;stroke-width:2.0833;"/><line style="stroke:#D4AF37;stroke-width:2.0833;" x1="464.5833" x2="555.9794" y1="121.7773" y2="121.7773"/><text fill="#FFFFFF" font-family="'Verdana'" font-size="12.5" font-weight="bold" lengthAdjust="spacing" textLength="67.4377" x="473.9583" y="109.4543">BACKEND</text></g><!--cluster DATABASE--><g class="cluster" data-entity="DATABASE" data-source-line="27" data-uid="ent0014" id="cluster_DATABASE"><path d="M892.7083,90.5599 L976.0356,90.5599 A6.25,6.25 0 0 1 980.2022,94.7266 L987.4939,121.7773 L1190.625,121.7773 A4.1667,4.1667 0 0 1 1194.7917,125.944 L1194.7917,321.7474 A4.1667,4.1667 0 0 1 1190.625,325.9141 L892.7083,325.9141 A4.1667,4.1667 0 0 1 888.5417,321.7474 L888.5417,94.7266 A4.1667,4.1667 0 0 1 892.7083,90.5599" fill="#1A365D" style="stroke:#D4AF37;stroke-width:2.0833;"/><line style="stroke:#D4AF37;stroke-width:2.0833;" x1="888.5417" x2="987.4939" y1="121.7773" y2="121.7773"/><text fill="#FFFFFF" font-family="'Verdana'" font-size="12.5" font-weight="bold" lengthAdjust="spacing" textLength="74.9939" x="897.9167" y="109.4543">DATABASE</text></g><!--cluster INFRA--><g class="cluster" data-entity="INFRA" data-source-line="34" data-uid="ent0019" id="cluster_INFRA"><path d="M39.5833,350.9141 L90.8671,350.9141 A6.25,6.25 0 0 1 95.0338,355.0807 L102.3254,382.1315 L390.625,382.1315 A4.1667,4.1667 0 0 1 394.7917,386.2982 L394.7917,582.1016 A4.1667,4.1667 0 0 1 390.625,586.2682 L39.5833,586.2682 A4.1667,4.1667 0 0 1 35.4167,582.1016 L35.4167,355.0807 A4.1667,4.1667 0 0 1 39.5833,350.9141" fill="#1A365D" style="stroke:#D4AF37;stroke-width:2.0833;"/><line style="stroke:#D4AF37;stroke-width:2.0833;" x1="35.4167" x2="102.3254" y1="382.1315" y2="382.1315"/><text fill="#FFFFFF" font-family="'Verdana'" font-size="12.5" font-weight="bold" lengthAdjust="spacing" textLength="42.9504" x="44.7917" y="369.8085">INFRA</text></g><!--cluster AI & PAYMENTS--><g class="cluster" data-entity="AI . PAYMENTS" data-source-line="42" data-uid="ent0025" id="cluster_AI . PAYMENTS"><path d="M423.9583,350.9141 L543.0766,350.9141 A6.25,6.25 0 0 1 547.2432,355.0807 L554.5349,382.1315 L762.5,382.1315 A4.1667,4.1667 0 0 1 766.6667,386.2982 L766.6667,582.1016 A4.1667,4.1667 0 0 1 762.5,586.2682 L423.9583,586.2682 A4.1667,4.1667 0 0 1 419.7917,582.1016 L419.7917,355.0807 A4.1667,4.1667 0 0 1 423.9583,350.9141" fill="#1A365D" style="stroke:#D4AF37;stroke-width:2.0833;"/><line style="stroke:#D4AF37;stroke-width:2.0833;" x1="419.7917" x2="554.5349" y1="382.1315" y2="382.1315"/><text fill="#FFFFFF" font-family="'Verdana'" font-size="12.5" font-weight="bold" lengthAdjust="spacing" textLength="110.7849" x="429.1667" y="369.8085">AI &amp; PAYMENTS</text></g><!--entity React.js--><g class="entity" data-entity="React.js" data-source-line="12" data-uid="ent0003" id="entity_React.js"><rect fill="#0A192F" height="56.2174" rx="4.1667" ry="4.1667" style="stroke:#D4AF37;stroke-width:1.0417;" width="101.8514" x="33.4479" y="134.3099"/><rect fill="#0A192F" height="10.4167" style="stroke:#D4AF37;stroke-width:1.0417;" width="15.625" x="114.466" y="139.5182"/><rect fill="#0A192F" height="2.0833" style="stroke:#D4AF37;stroke-width:1.0417;" width="4.1667" x="112.3826" y="141.6016"/><rect fill="#0A192F" height="2.0833" style="stroke:#D4AF37;stroke-width:1.0417;" width="4.1667" x="112.3826" y="145.7682"/><text fill="#FFFFFF" font-family="'Verdana'" font-size="12.5" lengthAdjust="spacing" textLength="49.7681" x="54.2813" y="171.9543">React.js</text></g><!--entity Next.js--><g class="entity" data-entity="Next.js" data-source-line="13" data-uid="ent0004" id="entity_Next.js"><rect fill="#0A192F" height="56.2174" rx="4.1667" ry="4.1667" style="stroke:#D4AF37;stroke-width:1.0417;" width="95.3817" x="172.1042" y="134.3099"/><rect fill="#0A192F" height="10.4167" style="stroke:#D4AF37;stroke-width:1.0417;" width="15.625" x="246.6525" y="139.5182"/><rect fill="#0A192F" height="2.0833" style="stroke:#D4AF37;stroke-width:1.0417;" width="4.1667" x="244.5692" y="141.6016"/><rect fill="#0A192F" height="2.0833" style="stroke:#D4AF37;stroke-width:1.0417;" width="4.1667" x="244.5692" y="145.7682"/><text fill="#FFFFFF" font-family="'Verdana'" font-size="12.5" lengthAdjust="spacing" textLength="43.2983" x="192.9375" y="171.9543">Next.js</text></g><!--entity TypeScript--><g class="entity" data-entity="TypeScript" data-source-line="14" data-uid="ent0005" id="entity_TypeScript"><rect fill="#0A192F" height="56.2174" rx="4.1667" ry="4.1667" style="stroke:#D4AF37;stroke-width:1.0417;" width="118.9962" x="304.0417" y="134.3099"/><rect fill="#0A192F" height="10.4167" style="stroke:#D4AF37;stroke-width:1.0417;" width="15.625" x="402.2045" y="139.5182"/><rect fill="#0A192F" height="2.0833" style="stroke:#D4AF37;stroke-width:1.0417;" width="4.1667" x="400.1212" y="141.6016"/><rect fill="#0A192F" height="2.0833" style="stroke:#D4AF37;stroke-width:1.0417;" width="4.1667" x="400.1212" y="145.7682"/><text fill="#FFFFFF" font-family="'Verdana'" font-size="12.5" lengthAdjust="spacing" textLength="66.9128" x="324.875" y="171.9543">TypeScript</text></g><!--entity Tailwind CSS--><g class="entity" data-entity="Tailwind CSS" data-source-line="15" data-uid="ent0006" id="entity_Tailwind CSS"><rect fill="#0A192F" height="56.2174" rx="4.1667" ry="4.1667" style="stroke:#D4AF37;stroke-width:1.0417;" width="132.4483" x="33.7708" y="253.0286"/><rect fill="#0A192F" height="10.4167" style="stroke:#D4AF37;stroke-width:1.0417;" width="15.625" x="145.3858" y="258.237"/><rect fill="#0A192F" height="2.0833" style="stroke:#D4AF37;stroke-width:1.0417;" width="4.1667" x="143.3025" y="260.3203"/><rect fill="#0A192F" height="2.0833" style="stroke:#D4AF37;stroke-width:1.0417;" width="4.1667" x="143.3025" y="264.487"/><text fill="#FFFFFF" font-family="'Verdana'" font-size="12.5" lengthAdjust="spacing" textLength="80.365" x="54.6042" y="290.6731">Tailwind CSS</text></g><!--entity Framer--><g class="entity" data-entity="Framer" data-source-line="16" data-uid="ent0007" id="entity_Framer"><rect fill="#0A192F" height="56.2174" rx="4.1667" ry="4.1667" style="stroke:#D4AF37;stroke-width:1.0417;" width="97.0785" x="202.5" y="253.0286"/><rect fill="#0A192F" height="10.4167" style="stroke:#D4AF37;stroke-width:1.0417;" width="15.625" x="278.7451" y="258.237"/><rect fill="#0A192F" height="2.0833" style="stroke:#D4AF37;stroke-width:1.0417;" width="4.1667" x="276.6618" y="260.3203"/><rect fill="#0A192F" height="2.0833" style="stroke:#D4AF37;stroke-width:1.0417;" width="4.1667" x="276.6618" y="264.487"/><text fill="#FFFFFF" font-family="'Verdana'" font-size="12.5" lengthAdjust="spacing" textLength="44.9951" x="223.3333" y="290.6731">Framer</text></g><!--entity Node.js--><g class="entity" data-entity="Node.js" data-source-line="20" data-uid="ent0009" id="entity_Node.js"><rect fill="#0A192F" height="56.2174" rx="4.1667" ry="4.1667" style="stroke:#D4AF37;stroke-width:1.0417;" width="98.6654" x="480.875" y="134.3099"/><rect fill="#0A192F" height="10.4167" style="stroke:#D4AF37;stroke-width:1.0417;" width="15.625" x="558.707" y="139.5182"/><rect fill="#0A192F" height="2.0833" style="stroke:#D4AF37;stroke-width:1.0417;" width="4.1667" x="556.6237" y="141.6016"/><rect fill="#0A192F" height="2.0833" style="stroke:#D4AF37;stroke-width:1.0417;" width="4.1667" x="556.6237" y="145.7682"/><text fill="#FFFFFF" font-family="'Verdana'" font-size="12.5" lengthAdjust="spacing" textLength="46.582" x="501.7083" y="171.9543">Node.js</text></g><!--entity NestJS--><g class="entity" data-entity="NestJS" data-source-line="21" data-uid="ent0010" id="entity_NestJS"><rect fill="#0A192F" height="56.2174" rx="4.1667" ry="4.1667" style="stroke:#D4AF37;stroke-width:1.0417;" width="92.159" x="616.4167" y="134.3099"/><rect fill="#0A192F" height="10.4167" style="stroke:#D4AF37;stroke-width:1.0417;" width="15.625" x="687.7424" y="139.5182"/><rect fill="#0A192F" height="2.0833" style="stroke:#D4AF37;stroke-width:1.0417;" width="4.1667" x="685.659" y="141.6016"/><rect fill="#0A192F" height="2.0833" style="stroke:#D4AF37;stroke-width:1.0417;" width="4.1667" x="685.659" y="145.7682"/><text fill="#FFFFFF" font-family="'Verdana'" font-size="12.5" lengthAdjust="spacing" textLength="40.0757" x="637.25" y="171.9543">NestJS</text></g><!--entity Express--><g class="entity" data-entity="Express" data-source-line="22" data-uid="ent0011" id="entity_Express"><rect fill="#0A192F" height="56.2174" rx="4.1667" ry="4.1667" style="stroke:#D4AF37;stroke-width:1.0417;" width="101.1678" x="745.25" y="134.3099"/><rect fill="#0A192F" height="10.4167" style="stroke:#D4AF37;stroke-width:1.0417;" width="15.625" x="825.5845" y="139.5182"/><rect fill="#0A192F" height="2.0833" style="stroke:#D4AF37;stroke-width:1.0417;" width="4.1667" x="823.5011" y="141.6016"/><rect fill="#0A192F" height="2.0833" style="stroke:#D4AF37;stroke-width:1.0417;" width="4.1667" x="823.5011" y="145.7682"/><text fill="#FFFFFF" font-family="'Verdana'" font-size="12.5" lengthAdjust="spacing" textLength="49.0845" x="766.0833" y="171.9543">Express</text></g><!--entity GraphQL--><g class="entity" data-entity="GraphQL" data-source-line="23" data-uid="ent0012" id="entity_GraphQL"><rect fill="#0A192F" height="56.2174" rx="4.1667" ry="4.1667" style="stroke:#D4AF37;stroke-width:1.0417;" width="107.2286" x="480.7604" y="253.0286"/><rect fill="#0A192F" height="10.4167" style="stroke:#D4AF37;stroke-width:1.0417;" width="15.625" x="567.1557" y="258.237"/><rect fill="#0A192F" height="2.0833" style="stroke:#D4AF37;stroke-width:1.0417;" width="4.1667" x="565.0723" y="260.3203"/><rect fill="#0A192F" height="2.0833" style="stroke:#D4AF37;stroke-width:1.0417;" width="4.1667" x="565.0723" y="264.487"/><text fill="#FFFFFF" font-family="'Verdana'" font-size="12.5" lengthAdjust="spacing" textLength="55.1453" x="501.5938" y="290.6731">GraphQL</text></g><!--entity REST APIs--><g class="entity" data-entity="REST APIs" data-source-line="24" data-uid="ent0013" id="entity_REST APIs"><rect fill="#0A192F" height="56.2174" rx="4.1667" ry="4.1667" style="stroke:#D4AF37;stroke-width:1.0417;" width="114.4979" x="624" y="253.0286"/><rect fill="#0A192F" height="10.4167" style="stroke:#D4AF37;stroke-width:1.0417;" width="15.625" x="717.6646" y="258.237"/><rect fill="#0A192F" height="2.0833" style="stroke:#D4AF37;stroke-width:1.0417;" width="4.1667" x="715.5812" y="260.3203"/><rect fill="#0A192F" height="2.0833" style="stroke:#D4AF37;stroke-width:1.0417;" width="4.1667" x="715.5812" y="264.487"/><text fill="#FFFFFF" font-family="'Verdana'" font-size="12.5" lengthAdjust="spacing" textLength="62.4146" x="644.8333" y="290.6731">REST APIs</text></g><!--entity PostgreSQL--><g class="entity" data-entity="PostgreSQL" data-source-line="28" data-uid="ent0015" id="entity_PostgreSQL"><rect fill="#0A192F" height="56.2174" rx="4.1667" ry="4.1667" style="stroke:#D4AF37;stroke-width:1.0417;" width="124.1842" x="905.6146" y="134.3099"/><rect fill="#0A192F" height="10.4167" style="stroke:#D4AF37;stroke-width:1.0417;" width="15.625" x="1008.9654" y="139.5182"/><rect fill="#0A192F" height="2.0833" style="stroke:#D4AF37;stroke-width:1.0417;" width="4.1667" x="1006.8821" y="141.6016"/><rect fill="#0A192F" height="2.0833" style="stroke:#D4AF37;stroke-width:1.0417;" width="4.1667" x="1006.8821" y="145.7682"/><text fill="#FFFFFF" font-family="'Verdana'" font-size="12.5" lengthAdjust="spacing" textLength="72.1008" x="926.4479" y="171.9543">PostgreSQL</text></g><!--entity MongoDB--><g class="entity" data-entity="MongoDB" data-source-line="29" data-uid="ent0016" id="entity_MongoDB"><rect fill="#0A192F" height="56.2174" rx="4.1667" ry="4.1667" style="stroke:#D4AF37;stroke-width:1.0417;" width="112.2213" x="1065.7604" y="134.3099"/><rect fill="#0A192F" height="10.4167" style="stroke:#D4AF37;stroke-width:1.0417;" width="15.625" x="1157.1484" y="139.5182"/><rect fill="#0A192F" height="2.0833" style="stroke:#D4AF37;stroke-width:1.0417;" width="4.1667" x="1155.065" y="141.6016"/><rect fill="#0A192F" height="2.0833" style="stroke:#D4AF37;stroke-width:1.0417;" width="4.1667" x="1155.065" y="145.7682"/><text fill="#FFFFFF" font-family="'Verdana'" font-size="12.5" lengthAdjust="spacing" textLength="60.1379" x="1086.5938" y="171.9543">MongoDB</text></g><!--entity Redis--><g class="entity" data-entity="Redis" data-source-line="30" data-uid="ent0017" id="entity_Redis"><rect fill="#0A192F" height="56.2174" rx="4.1667" ry="4.1667" style="stroke:#D4AF37;stroke-width:1.0417;" width="86.379" x="924.5208" y="253.0286"/><rect fill="#0A192F" height="10.4167" style="stroke:#D4AF37;stroke-width:1.0417;" width="15.625" x="990.0665" y="258.237"/><rect fill="#0A192F" height="2.0833" style="stroke:#D4AF37;stroke-width:1.0417;" width="4.1667" x="987.9832" y="260.3203"/><rect fill="#0A192F" height="2.0833" style="stroke:#D4AF37;stroke-width:1.0417;" width="4.1667" x="987.9832" y="264.487"/><text fill="#FFFFFF" font-family="'Verdana'" font-size="12.5" lengthAdjust="spacing" textLength="34.2957" x="945.3542" y="290.6731">Redis</text></g><!--entity Prisma ORM--><g class="entity" data-entity="Prisma ORM" data-source-line="31" data-uid="ent0018" id="entity_Prisma ORM"><rect fill="#0A192F" height="56.2174" rx="4.1667" ry="4.1667" style="stroke:#D4AF37;stroke-width:1.0417;" width="127.8646" x="1047.5313" y="253.0286"/><rect fill="#0A192F" height="10.4167" style="stroke:#D4AF37;stroke-width:1.0417;" width="15.625" x="1154.5625" y="258.237"/><rect fill="#0A192F" height="2.0833" style="stroke:#D4AF37;stroke-width:1.0417;" width="4.1667" x="1152.4792" y="260.3203"/><rect fill="#0A192F" height="2.0833" style="stroke:#D4AF37;stroke-width:1.0417;" width="4.1667" x="1152.4792" y="264.487"/><text fill="#FFFFFF" font-family="'Verdana'" font-size="12.5" lengthAdjust="spacing" textLength="75.7813" x="1068.3646" y="290.6731">Prisma ORM</text></g><!--entity Docker--><g class="entity" data-entity="Docker" data-source-line="35" data-uid="ent0020" id="entity_Docker"><rect fill="#0A192F" height="56.2174" rx="4.1667" ry="4.1667" style="stroke:#D4AF37;stroke-width:1.0417;" width="96.2972" x="51.8542" y="394.6641"/><rect fill="#0A192F" height="10.4167" style="stroke:#D4AF37;stroke-width:1.0417;" width="15.625" x="127.318" y="399.8724"/><rect fill="#0A192F" height="2.0833" style="stroke:#D4AF37;stroke-width:1.0417;" width="4.1667" x="125.2347" y="401.9557"/><rect fill="#0A192F" height="2.0833" style="stroke:#D4AF37;stroke-width:1.0417;" width="4.1667" x="125.2347" y="406.1224"/><text fill="#FFFFFF" font-family="'Verdana'" font-size="12.5" lengthAdjust="spacing" textLength="44.2139" x="72.6875" y="432.3085">Docker</text></g><!--entity AWS--><g class="entity" data-entity="AWS" data-source-line="36" data-uid="ent0021" id="entity_AWS"><rect fill="#0A192F" height="56.2174" rx="4.1667" ry="4.1667" style="stroke:#D4AF37;stroke-width:1.0417;" width="80.9285" x="184.5313" y="394.6641"/><rect fill="#0A192F" height="10.4167" style="stroke:#D4AF37;stroke-width:1.0417;" width="15.625" x="244.6265" y="399.8724"/><rect fill="#0A192F" height="2.0833" style="stroke:#D4AF37;stroke-width:1.0417;" width="4.1667" x="242.5431" y="401.9557"/><rect fill="#0A192F" height="2.0833" style="stroke:#D4AF37;stroke-width:1.0417;" width="4.1667" x="242.5431" y="406.1224"/><text fill="#FFFFFF" font-family="'Verdana'" font-size="12.5" lengthAdjust="spacing" textLength="28.8452" x="205.3646" y="432.3085">AWS</text></g><!--entity VPS--><g class="entity" data-entity="VPS" data-source-line="37" data-uid="ent0022" id="entity_VPS"><rect fill="#0A192F" height="56.2174" rx="4.1667" ry="4.1667" style="stroke:#D4AF37;stroke-width:1.0417;" width="76.1068" x="301.5313" y="394.6641"/><rect fill="#0A192F" height="10.4167" style="stroke:#D4AF37;stroke-width:1.0417;" width="15.625" x="356.8047" y="399.8724"/><rect fill="#0A192F" height="2.0833" style="stroke:#D4AF37;stroke-width:1.0417;" width="4.1667" x="354.7214" y="401.9557"/><rect fill="#0A192F" height="2.0833" style="stroke:#D4AF37;stroke-width:1.0417;" width="4.1667" x="354.7214" y="406.1224"/><text fill="#FFFFFF" font-family="'Verdana'" font-size="12.5" lengthAdjust="spacing" textLength="24.0234" x="322.3646" y="432.3085">VPS</text></g><!--entity Cloudflare--><g class="entity" data-entity="Cloudflare" data-source-line="38" data-uid="ent0023" id="entity_Cloudflare"><rect fill="#0A192F" height="56.2174" rx="4.1667" ry="4.1667" style="stroke:#D4AF37;stroke-width:1.0417;" width="116.1519" x="52.3438" y="513.3828"/><rect fill="#0A192F" height="10.4167" style="stroke:#D4AF37;stroke-width:1.0417;" width="15.625" x="147.6624" y="518.5911"/><rect fill="#0A192F" height="2.0833" style="stroke:#D4AF37;stroke-width:1.0417;" width="4.1667" x="145.579" y="520.6745"/><rect fill="#0A192F" height="2.0833" style="stroke:#D4AF37;stroke-width:1.0417;" width="4.1667" x="145.579" y="524.8411"/><text fill="#FFFFFF" font-family="'Verdana'" font-size="12.5" lengthAdjust="spacing" textLength="64.0686" x="73.1771" y="551.0273">Cloudflare</text></g><!--entity CI/CD--><g class="entity" data-entity="CI.CD" data-source-line="39" data-uid="ent0024" id="entity_CI.CD"><rect fill="#0A192F" height="56.2174" rx="4.1667" ry="4.1667" style="stroke:#D4AF37;stroke-width:1.0417;" width="87.0626" x="205.4271" y="513.3828"/><rect fill="#0A192F" height="10.4167" style="stroke:#D4AF37;stroke-width:1.0417;" width="15.625" x="271.6563" y="518.5911"/><rect fill="#0A192F" height="2.0833" style="stroke:#D4AF37;stroke-width:1.0417;" width="4.1667" x="269.573" y="520.6745"/><rect fill="#0A192F" height="2.0833" style="stroke:#D4AF37;stroke-width:1.0417;" width="4.1667" x="269.573" y="524.8411"/><text fill="#FFFFFF" font-family="'Verdana'" font-size="12.5" lengthAdjust="spacing" textLength="34.9792" x="226.2604" y="551.0273">CI/CD</text></g><!--entity OpenAI API--><g class="entity" data-entity="OpenAI API" data-source-line="43" data-uid="ent0026" id="entity_OpenAI API"><rect fill="#0A192F" height="56.2174" rx="4.1667" ry="4.1667" style="stroke:#D4AF37;stroke-width:1.0417;" width="121.4559" x="441.3542" y="394.6641"/><rect fill="#0A192F" height="10.4167" style="stroke:#D4AF37;stroke-width:1.0417;" width="15.625" x="541.9767" y="399.8724"/><rect fill="#0A192F" height="2.0833" style="stroke:#D4AF37;stroke-width:1.0417;" width="4.1667" x="539.8934" y="401.9557"/><rect fill="#0A192F" height="2.0833" style="stroke:#D4AF37;stroke-width:1.0417;" width="4.1667" x="539.8934" y="406.1224"/><text fill="#FFFFFF" font-family="'Verdana'" font-size="12.5" lengthAdjust="spacing" textLength="69.3726" x="462.1875" y="432.3085">OpenAI API</text></g><!--entity Claude API--><g class="entity" data-entity="Claude API" data-source-line="44" data-uid="ent0027" id="entity_Claude API"><rect fill="#0A192F" height="56.2174" rx="4.1667" ry="4.1667" style="stroke:#D4AF37;stroke-width:1.0417;" width="119.2403" x="599.75" y="394.6641"/><rect fill="#0A192F" height="10.4167" style="stroke:#D4AF37;stroke-width:1.0417;" width="15.625" x="698.157" y="399.8724"/><rect fill="#0A192F" height="2.0833" style="stroke:#D4AF37;stroke-width:1.0417;" width="4.1667" x="696.0736" y="401.9557"/><rect fill="#0A192F" height="2.0833" style="stroke:#D4AF37;stroke-width:1.0417;" width="4.1667" x="696.0736" y="406.1224"/><text fill="#FFFFFF" font-family="'Verdana'" font-size="12.5" lengthAdjust="spacing" textLength="67.157" x="620.5833" y="432.3085">Claude API</text></g><!--entity PIX Integration--><g class="entity" data-entity="PIX Integration" data-source-line="45" data-uid="ent0028" id="entity_PIX Integration"><rect fill="#0A192F" height="56.2174" rx="4.1667" ry="4.1667" style="stroke:#D4AF37;stroke-width:1.0417;" width="144.7225" x="435.9688" y="513.3828"/><rect fill="#0A192F" height="10.4167" style="stroke:#D4AF37;stroke-width:1.0417;" width="15.625" x="559.8579" y="518.5911"/><rect fill="#0A192F" height="2.0833" style="stroke:#D4AF37;stroke-width:1.0417;" width="4.1667" x="557.7746" y="520.6745"/><rect fill="#0A192F" height="2.0833" style="stroke:#D4AF37;stroke-width:1.0417;" width="4.1667" x="557.7746" y="524.8411"/><text fill="#FFFFFF" font-family="'Verdana'" font-size="12.5" lengthAdjust="spacing" textLength="92.6392" x="456.8021" y="551.0273">PIX Integration</text></g><!--entity Banking APIs--><g class="entity" data-entity="Banking APIs" data-source-line="46" data-uid="ent0029" id="entity_Banking APIs"><rect fill="#0A192F" height="56.2174" rx="4.1667" ry="4.1667" style="stroke:#D4AF37;stroke-width:1.0417;" width="133.0709" x="616.8021" y="513.3828"/><rect fill="#0A192F" height="10.4167" style="stroke:#D4AF37;stroke-width:1.0417;" width="15.625" x="729.0396" y="518.5911"/><rect fill="#0A192F" height="2.0833" style="stroke:#D4AF37;stroke-width:1.0417;" width="4.1667" x="726.9563" y="520.6745"/><rect fill="#0A192F" height="2.0833" style="stroke:#D4AF37;stroke-width:1.0417;" width="4.1667" x="726.9563" y="524.8411"/><text fill="#FFFFFF" font-family="'Verdana'" font-size="12.5" lengthAdjust="spacing" textLength="80.9875" x="637.6354" y="551.0273">Banking APIs</text></g><!--SRC=[XP5TJzim58RlyojC9krk56W7GW8avwDJO4r34h6XYOkp-2HuTUt8SRG2uh-Jnb4_41A-yVbup-Fto0Vc4PT82jIjG93VL6i4b-Wq2ovhqB0aVw5OL5gralbAA4s-7C7n-Kcves1OGYlCL4apICh-x4YI3W8LUkzPnp0-_Su-42hDK0yYDe5oVBOZyjMoLXAbyJxrjfL-G7GCDmB9HTav9yMwTUaEFPSq_1altPE9UvMPxfcU9D30nMWjltASsbebxZITntaO1ovvSGZvao8Kvl1Vyx1EObnjulofngpGl3Os1Ix-Syc8dsLzOTePHltWlEwmFUhVRD6nOhWbD-RQ3eQhMcDZopyqr8-tF_iu3RESq2Hgzfa1pQb7it209genbSPi69efMQd0im1at68JpPiba7awssT5yJIb0oXGnMBjlmlfB-liBh6tBrJBIW4QRHgD_60VH2FobIJqVXR6UJO0vpNAhjvjC42WPRX9a-WtYQJ1IeFXIlOr3sJtzTLcwJS0]--></g></svg>