<svg xmlns="http://www.w3.org/2000/svg" xmlns:xlink="http://www.w3.org/1999/xlink" contentStyleType="text/css" data-diagram-type="DESCRIPTION" height="1746px" preserveAspectRatio="none" style="width:1344px;height:1746px;background:#0A192F;" version="1.1" viewBox="0 0 1344 1746" width="1344px" zoomAndPan="magnify"><title>&lt;font color="#d4af37" size="28"&gt;Arquitetura de Entrega Real&lt;/font&gt;</title><defs/><g><rect fill="#0A192F" height="1746" style="stroke:none;stroke-width:1;" width="1344" x="0" y="0"/><g class="title" data-source-line="15"><text fill="#D4AF37" font-family="sans-serif" font-size="28" font-weight="bold" lengthAdjust="spacing" textLength="444.9512" x="442.5671" y="35.9902">Arquitetura de Entrega Real</text></g><!--cluster discovery--><g class="cluster" data-entity="discovery" data-source-line="20" data-uid="ent0004" id="cluster_discovery"><rect fill="#0A192F" height="328.09" rx="2.5" ry="2.5" style="stroke:#D4AF37;stroke-width:1;" width="220" x="820" y="198.3838"/><text fill="#FFFFFF" font-family="sans-serif" font-size="14" font-weight="bold" lengthAdjust="spacing" textLength="104.8428" x="877.5786" y="213.3789">DESCOBERTA</text></g><!--cluster dev--><g class="cluster" data-entity="dev" data-source-line="26" data-uid="ent0008" id="cluster_dev"><rect fill="#0A192F" height="632.19" rx="2.5" ry="2.5" style="stroke:#D4AF37;stroke-width:1;" width="641" x="580" y="583.4738"/><text fill="#FFFFFF" font-family="sans-serif" font-size="14" font-weight="bold" lengthAdjust="spacing" textLength="156.9121" x="822.0439" y="598.4689">DESENVOLVIMENTO</text></g><!--cluster fe--><g class="cluster" data-entity="fe" data-source-line="27" data-uid="ent0009" id="cluster_fe"><path d="M622.5,634.4738 L695.7285,634.4738 A3.75,3.75 0 0 1 698.2285,636.9738 L705.2285,656.7706 L823.5,656.7706 A2.5,2.5 0 0 1 826,659.2706 L826,1034.8638 A2.5,2.5 0 0 1 823.5,1037.3638 L622.5,1037.3638 A2.5,2.5 0 0 1 620,1034.8638 L620,636.9738 A2.5,2.5 0 0 1 622.5,634.4738" fill="none" style="stroke:#000000;stroke-width:1.5;"/><line style="stroke:#000000;stroke-width:1.5;" x1="620" x2="705.2285" y1="656.7706" y2="656.7706"/><text fill="#FFFFFF" font-family="sans-serif" font-size="14" font-weight="bold" lengthAdjust="spacing" textLength="72.2285" x="624" y="649.4689">Frontend</text></g><!--cluster be--><g class="cluster" data-entity="be" data-source-line="33" data-uid="ent0013" id="cluster_be"><path d="M852.5,634.4738 L920.7109,634.4738 A3.75,3.75 0 0 1 923.2109,636.9738 L930.2109,656.7706 L1186.5,656.7706 A2.5,2.5 0 0 1 1189,659.2706 L1189,873.5638 A2.5,2.5 0 0 1 1186.5,876.0638 L852.5,876.0638 A2.5,2.5 0 0 1 850,873.5638 L850,636.9738 A2.5,2.5 0 0 1 852.5,634.4738" fill="none" style="stroke:#000000;stroke-width:1.5;"/><line style="stroke:#000000;stroke-width:1.5;" x1="850" x2="930.2109" y1="656.7706" y2="656.7706"/><text fill="#FFFFFF" font-family="sans-serif" font-size="14" font-weight="bold" lengthAdjust="spacing" textLength="67.2109" x="854" y="649.4689">Backend</text></g><!--cluster db--><g class="cluster" data-entity="db" data-source-line="39" data-uid="ent0017" id="cluster_db"><path d="M875,935.0638 C875,925.0638 1032,925.0638 1032,925.0638 C1032,925.0638 1189,925.0638 1189,935.0638 L1189,1173.6638 C1189,1183.6638 1032,1183.6638 1032,1183.6638 C1032,1183.6638 875,1183.6638 875,1173.6638 L875,935.0638" fill="#1A365D" style="stroke:#D4AF37;stroke-width:1;"/><path d="M875,935.0638 C875,945.0638 1032,945.0638 1032,945.0638 C1032,945.0638 1189,945.0638 1189,935.0638" fill="none" style="stroke:#D4AF37;stroke-width:1;"/><text fill="#FFFFFF" font-family="sans-serif" font-size="14" font-weight="bold" lengthAdjust="spacing" textLength="85.9756" x="989.0122" y="960.0589">Data Layer</text></g><!--cluster infra--><g class="cluster" data-entity="infra" data-source-line="46" data-uid="ent0021" id="cluster_infra"><path d="M213.8752,791.0627 C220.706,779.257 229.1813,777.9588 237.627,789.4137 C245.0291,780.5187 251.4137,780.5289 258.0594,790.2442 C263.1009,778.6521 273.585,776.512 281.4863,787.243 C288.9965,775.3302 299.0401,774.9034 305.7075,788.0574 C311.5292,775.1726 322.56,774.1356 329.7439,786.7746 C337.3764,775.0877 344.3706,776.1549 351.8805,786.8957 C359.6919,777.6803 366.6852,777.3807 373.3456,788.1329 C379.8976,776.5542 392.7991,774.8961 399.5299,787.9428 C404.1585,777.0785 411.4044,777.5823 418.4391,785.5234 C426.1676,774.778 434.33,773.169 441.7154,785.8641 C451.2637,773.9201 460.3673,777.2728 465.9027,789.8261 C472.5979,778.7642 479.0258,777.1218 487.6303,787.9292 C495.903,778.1828 503.5524,777.0751 510.1742,789.6002 C522.1254,775.2572 532.2388,778.1735 540,793.7738 C542.4431,794.5374 542.4706,796.5903 540.8686,798.1557 C551.2692,803.2653 552.7559,809.527 543.9372,817.6603 C556.0877,821.8753 561.5109,834.1073 549.274,843.3823 C561.4572,850.0229 562.2224,857.5895 551.4262,866.3805 C562.9414,874.2381 562.369,881.1892 550.7042,888.2826 C563.4482,891.2734 565.6139,900.1884 556.0312,908.9374 C566.3378,916.4014 565.7744,926.8586 554.1783,932.6081 C565.8372,943.9855 563.6171,951.5891 548.9811,957.4696 C559.4504,964.1669 558.0231,973.5724 547.7544,979.0932 C556.476,988.2344 556.5626,998.2566 543.3031,1003.3669 C550.3341,1016.5774 548.4197,1025.051 533,1029.3638 C534.2969,1028.5973 535.2979,1029.4292 535.1538,1030.8095 C528.6692,1041.7627 518.8892,1043.713 511.5786,1031.6559 C505.2255,1041.1684 497.0207,1041.0031 491.1027,1031.1948 C483.887,1043.3047 474.1379,1044.6029 464.448,1034.1129 C457.1877,1045.1569 450.1187,1043.1058 442.7991,1034.1771 C437.9034,1045.435 427.4535,1046.2422 421.7608,1034.9198 C415.3141,1046.6343 405.7991,1048.9735 396.9755,1037.4555 C390.2501,1046.9584 383.7192,1045.7981 376.7861,1037.6937 C370.3229,1050.0683 358.0732,1051.2954 351.6264,1037.6778 C342.3943,1049.2333 335.4535,1045.5931 328.6671,1035.1278 C320.7833,1044.187 313.0285,1046.0009 306.124,1034.0757 C300.3967,1047.5733 287.9966,1048.4664 280.9544,1035.3176 C274.4981,1044.9885 265.7276,1044.1111 259.8913,1034.6355 C251.6859,1047.0688 241.7942,1045.08 235.5664,1032.6971 C221.4908,1042.4177 210.4837,1038.0581 205,1022.3638 C205.9249,1021.0146 207.0298,1021.2302 207.7295,1022.5906 C197.0227,1017.9089 195.2435,1008.8958 205.6502,1002.0742 C195.8882,994.3392 196.0005,987.2545 206.6365,980.4499 C194.7295,974.5123 195.4878,965.8086 204.4793,957.8741 C190.3666,949.9085 189.7441,940.29 203.4747,931.2729 C193.7824,925.586 194.8152,918.2471 202.7544,911.9045 C192.5713,905.0678 191.1693,897.0162 200.8137,888.5331 C192.3429,880.0267 192.1913,871.7784 204.098,866.2794 C192.8402,859.9355 193.8043,849.2683 204.5776,843.3859 C192.6087,835.268 195.096,825.0903 207.497,820.0168 C192.2297,809.1517 196.5781,793.4818 212,786.7738 C214.6608,787.386 215.1861,788.714 213.8752,791.0627" fill="#1A365D" style="stroke:#D4AF37;stroke-width:1;"/><text fill="#FFFFFF" font-family="sans-serif" font-size="14" font-weight="bold" lengthAdjust="spacing" textLength="141.9824" x="301.5088" y="804.7689">INFRAESTRUTURA</text></g><!--cluster cdn--><g class="cluster" data-entity="cdn" data-source-line="53" data-uid="ent0026" id="cluster_cdn"><path d="M40.69,1099.2199 C48.3745,1079.5256 66.6987,1078.9697 77.661,1095.9123 C89.1635,1080.361 102.4502,1077.245 113.0105,1096.8595 C121.7552,1079.6413 132.3308,1079.22 143.5608,1094.5249 C154.2836,1075.8816 171.1782,1071.9357 183.2057,1093.2297 C189.0722,1075.6979 203.0662,1073.0813 215.2667,1086.7134 C227.9278,1071.551 241.2879,1070.3593 251.3365,1089.4634 C261.5533,1070.5735 274.6325,1069.0247 289.8747,1083.6921 C300.1741,1068.4617 315.9694,1065.2564 325.5285,1084.4587 C339.4449,1069.5999 351.0152,1075.1017 359.0366,1090.9015 C368.7713,1074.9565 385.6698,1073.0342 394.9278,1091.4001 C405.7171,1074.2235 416.8173,1075.2831 428.0251,1090.9786 C438.6198,1076.0387 454.4394,1073.3339 464.5122,1091.5529 C478.2291,1075.3374 491.8584,1079.4969 499.6765,1097.5976 C511.8332,1080.7361 531.3837,1080.3191 540,1101.3638 C541.8059,1100.639 542.6597,1102.0229 542.3725,1103.5597 C559.8094,1113.3739 562.0608,1125.005 546.2317,1138.494 C567.0813,1146.4479 567.0359,1160.764 553.4426,1175.4402 C574.2972,1185.0658 574.216,1204.6041 554.299,1215.1098 C566.6629,1226.5133 565.8804,1240.0677 548.8078,1246.2866 C565.8789,1256.4297 564.944,1275.3421 548.9981,1285.6449 C564.2017,1303.4962 554.1175,1321.8845 533,1324.9538 C534.3616,1324.1815 535.0654,1324.7248 535.4364,1326.0854 C526.4621,1346.0989 510.1495,1345.794 499.7052,1327.455 C491.3424,1343.365 474.0661,1344.7342 464.7892,1328.4462 C456.2917,1345.7189 442.6735,1350.9987 428.8462,1334.043 C417.9232,1350.8584 403.1856,1347.9644 393.3177,1332.8683 C384.1477,1351.1493 372.1785,1353.0476 359.5371,1336.2073 C347.9634,1350.9519 338.1763,1350.4194 326.9166,1335.8577 C318.0963,1352.1698 302.5924,1354.6409 291.5405,1338.2735 C278.2362,1355.609 266.3763,1356.2281 255.3453,1336.0783 C241.2254,1351.423 226.3167,1350.9984 214.6581,1333.0686 C205.0872,1347.5143 190.8866,1344.8983 183.2495,1330.9309 C171.9518,1348.0519 161.1493,1347.6284 148.4308,1332.4632 C138.6565,1349.1709 119.825,1352.3948 109.9653,1332.5531 C95.6267,1345.6335 83.4942,1346.2918 74.6062,1326.6611 C55.787,1342.899 40.9809,1341.8699 30,1317.9538 C32.1636,1319.1951 32.3252,1320.6479 30.7548,1322.508 C10.8262,1310.0307 17.0568,1292.6593 34.7375,1284.0798 C18.7735,1273.8304 18.1607,1263.1401 33.1349,1251.3748 C14.4022,1241.4858 12.5263,1225.7617 29.477,1212.5139 C16.4875,1202.067 14.9795,1188.2728 31.1839,1179.3276 C11.2497,1166.5549 9.2825,1153.0788 30.6347,1139.7334 C10.9615,1123.6002 14.6605,1104.6026 37,1094.3638 C40.8145,1093.9681 41.7555,1095.9075 40.69,1099.2199" fill="#1A365D" style="stroke:#D4AF37;stroke-width:1;"/><text fill="#FFFFFF" font-family="sans-serif" font-size="14" font-weight="bold" lengthAdjust="spacing" textLength="88.9902" x="240.5049" y="1112.3589">CDN &amp; DNS</text></g><!--cluster delivery--><g class="cluster" data-entity="delivery" data-source-line="60" data-uid="ent0031" id="cluster_delivery"><rect fill="#D4AF37" height="204.22" rx="2.5" ry="2.5" style="stroke:#D4AF37;stroke-width:1;" width="357" x="7" y="1389.9538"/><text fill="#FFFFFF" font-family="sans-serif" font-size="14" font-weight="bold" lengthAdjust="spacing" textLength="73.5" x="148.75" y="1404.9489">ENTREGA</text></g><!--entity prob--><g class="entity" data-entity="prob" data-source-line="21" data-uid="ent0005" id="entity_prob"><ellipse cx="930.0023" cy="253.7402" fill="#F1F1F1" rx="89.7823" ry="20.3565" style="stroke:#181818;stroke-width:0.5;"/><text fill="#FFFFFF" font-family="sans-serif" font-size="14" lengthAdjust="spacing" textLength="153.248" x="853.3783" y="258.3886">Problema Identificado</text></g><!--entity req--><g class="entity" data-entity="req" data-source-line="22" data-uid="ent0006" id="entity_req"><ellipse cx="930.0042" cy="371.0386" fill="#F1F1F1" rx="87.6742" ry="19.9348" style="stroke:#181818;stroke-width:0.5;"/><text fill="#FFFFFF" font-family="sans-serif" font-size="14" lengthAdjust="spacing" textLength="148.4561" x="855.7762" y="375.687">Requisitos Mapeados</text></g><!--entity arq--><g class="entity" data-entity="arq" data-source-line="23" data-uid="ent0007" id="entity_arq"><ellipse cx="930.0013" cy="489.226" fill="#F1F1F1" rx="94.2613" ry="21.2523" style="stroke:#181818;stroke-width:0.5;"/><text fill="#FFFFFF" font-family="sans-serif" font-size="14" lengthAdjust="spacing" textLength="163.3242" x="848.3392" y="493.8744">Arquitetura Desenhada</text></g><!--entity nextapp--><g class="entity" data-entity="nextapp" data-source-line="28" data-uid="ent0010" id="entity_nextapp"><rect fill="#1A365D" height="46.2969" rx="2.5" ry="2.5" style="stroke:#D4AF37;stroke-width:0.5;" width="120.2949" x="662.85" y="669.4738"/><rect fill="#1A365D" height="10" style="stroke:#D4AF37;stroke-width:0.5;" width="15" x="763.1449" y="674.4738"/><rect fill="#1A365D" height="2" style="stroke:#D4AF37;stroke-width:0.5;" width="4" x="761.1449" y="676.4738"/><rect fill="#1A365D" height="2" style="stroke:#D4AF37;stroke-width:0.5;" width="4" x="761.1449" y="680.4738"/><text fill="#FFFFFF" font-family="sans-serif" font-size="14" lengthAdjust="spacing" textLength="80.2949" x="677.85" y="702.4689">Next.js App</text></g><!--entity react--><g class="entity" data-entity="react" data-source-line="29" data-uid="ent0011" id="entity_react"><rect fill="#1A365D" height="46.2969" rx="2.5" ry="2.5" style="stroke:#D4AF37;stroke-width:0.5;" width="173.1299" x="636.44" y="813.7738"/><rect fill="#1A365D" height="10" style="stroke:#D4AF37;stroke-width:0.5;" width="15" x="789.5699" y="818.7738"/><rect fill="#1A365D" height="2" style="stroke:#D4AF37;stroke-width:0.5;" width="4" x="787.5699" y="820.7738"/><rect fill="#1A365D" height="2" style="stroke:#D4AF37;stroke-width:0.5;" width="4" x="787.5699" y="824.7738"/><text fill="#FFFFFF" font-family="sans-serif" font-size="14" lengthAdjust="spacing" textLength="133.1299" x="651.44" y="846.7689">React Components</text></g><!--entity tw--><g class="entity" data-entity="tw" data-source-line="30" data-uid="ent0012" id="entity_tw"><rect fill="#1A365D" height="46.2969" rx="2.5" ry="2.5" style="stroke:#D4AF37;stroke-width:0.5;" width="144.918" x="650.54" y="975.0638"/><rect fill="#1A365D" height="10" style="stroke:#D4AF37;stroke-width:0.5;" width="15" x="775.458" y="980.0638"/><rect fill="#1A365D" height="2" style="stroke:#D4AF37;stroke-width:0.5;" width="4" x="773.458" y="982.0638"/><rect fill="#1A365D" height="2" style="stroke:#D4AF37;stroke-width:0.5;" width="4" x="773.458" y="986.0638"/><text fill="#FFFFFF" font-family="sans-serif" font-size="14" lengthAdjust="spacing" textLength="104.918" x="665.54" y="1008.0589">Tailwind Styles</text></g><!--entity nest--><g class="entity" data-entity="nest" data-source-line="34" data-uid="ent0014" id="entity_nest"><rect fill="#1A365D" height="46.2969" rx="2.5" ry="2.5" style="stroke:#D4AF37;stroke-width:0.5;" width="111.4834" x="874.26" y="669.4738"/><rect fill="#1A365D" height="10" style="stroke:#D4AF37;stroke-width:0.5;" width="15" x="965.7434" y="674.4738"/><rect fill="#1A365D" height="2" style="stroke:#D4AF37;stroke-width:0.5;" width="4" x="963.7434" y="676.4738"/><rect fill="#1A365D" height="2" style="stroke:#D4AF37;stroke-width:0.5;" width="4" x="963.7434" y="680.4738"/><text fill="#FFFFFF" font-family="sans-serif" font-size="14" lengthAdjust="spacing" textLength="71.4834" x="889.26" y="702.4689">NestJS API</text></g><!--entity auth--><g class="entity" data-entity="auth" data-source-line="35" data-uid="ent0015" id="entity_auth"><rect fill="#1A365D" height="46.2969" rx="2.5" ry="2.5" style="stroke:#D4AF37;stroke-width:0.5;" width="128.1699" x="865.92" y="813.7738"/><rect fill="#1A365D" height="10" style="stroke:#D4AF37;stroke-width:0.5;" width="15" x="974.0899" y="818.7738"/><rect fill="#1A365D" height="2" style="stroke:#D4AF37;stroke-width:0.5;" width="4" x="972.0899" y="820.7738"/><rect fill="#1A365D" height="2" style="stroke:#D4AF37;stroke-width:0.5;" width="4" x="972.0899" y="824.7738"/><text fill="#FFFFFF" font-family="sans-serif" font-size="14" lengthAdjust="spacing" textLength="88.1699" x="880.92" y="846.7689">Auth Module</text></g><!--entity logic--><g class="entity" data-entity="logic" data-source-line="36" data-uid="ent0016" id="entity_logic"><rect fill="#1A365D" height="46.2969" rx="2.5" ry="2.5" style="stroke:#D4AF37;stroke-width:0.5;" width="143.0244" x="1029.49" y="813.7738"/><rect fill="#1A365D" height="10" style="stroke:#D4AF37;stroke-width:0.5;" width="15" x="1152.5144" y="818.7738"/><rect fill="#1A365D" height="2" style="stroke:#D4AF37;stroke-width:0.5;" width="4" x="1150.5144" y="820.7738"/><rect fill="#1A365D" height="2" style="stroke:#D4AF37;stroke-width:0.5;" width="4" x="1150.5144" y="824.7738"/><text fill="#FFFFFF" font-family="sans-serif" font-size="14" lengthAdjust="spacing" textLength="103.0244" x="1044.49" y="846.7689">Business Logic</text></g><!--entity pg--><g class="entity" data-entity="pg" data-source-line="40" data-uid="ent0018" id="entity_pg"><rect fill="#1A365D" height="46.2969" rx="2.5" ry="2.5" style="stroke:#D4AF37;stroke-width:0.5;" width="120.7529" x="1052.62" y="1121.3638"/><rect fill="#1A365D" height="10" style="stroke:#D4AF37;stroke-width:0.5;" width="15" x="1153.3729" y="1126.3638"/><rect fill="#1A365D" height="2" style="stroke:#D4AF37;stroke-width:0.5;" width="4" x="1151.3729" y="1128.3638"/><rect fill="#1A365D" height="2" style="stroke:#D4AF37;stroke-width:0.5;" width="4" x="1151.3729" y="1132.3638"/><text fill="#FFFFFF" font-family="sans-serif" font-size="14" lengthAdjust="spacing" textLength="80.7529" x="1067.62" y="1154.3589">PostgreSQL</text></g><!--entity redis--><g class="entity" data-entity="redis" data-source-line="41" data-uid="ent0019" id="entity_redis"><rect fill="#1A365D" height="46.2969" rx="2.5" ry="2.5" style="stroke:#D4AF37;stroke-width:0.5;" width="126.3994" x="890.8" y="1121.3638"/><rect fill="#1A365D" height="10" style="stroke:#D4AF37;stroke-width:0.5;" width="15" x="997.1994" y="1126.3638"/><rect fill="#1A365D" height="2" style="stroke:#D4AF37;stroke-width:0.5;" width="4" x="995.1994" y="1128.3638"/><rect fill="#1A365D" height="2" style="stroke:#D4AF37;stroke-width:0.5;" width="4" x="995.1994" y="1132.3638"/><text fill="#FFFFFF" font-family="sans-serif" font-size="14" lengthAdjust="spacing" textLength="86.3994" x="905.8" y="1154.3589">Redis Cache</text></g><!--entity prisma--><g class="entity" data-entity="prisma" data-source-line="42" data-uid="ent0020" id="entity_prisma"><rect fill="#1A365D" height="46.2969" rx="2.5" ry="2.5" style="stroke:#D4AF37;stroke-width:0.5;" width="124.875" x="1038.56" y="975.0638"/><rect fill="#1A365D" height="10" style="stroke:#D4AF37;stroke-width:0.5;" width="15" x="1143.435" y="980.0638"/><rect fill="#1A365D" height="2" style="stroke:#D4AF37;stroke-width:0.5;" width="4" x="1141.435" y="982.0638"/><rect fill="#1A365D" height="2" style="stroke:#D4AF37;stroke-width:0.5;" width="4" x="1141.435" y="986.0638"/><text fill="#FFFFFF" font-family="sans-serif" font-size="14" lengthAdjust="spacing" textLength="84.875" x="1053.56" y="1008.0589">Prisma ORM</text></g><!--entity vps--><g class="entity" data-entity="vps" data-source-line="47" data-uid="ent0022" id="entity_vps"><rect fill="#1A365D" height="46.2969" rx="2.5" ry="2.5" style="stroke:#D4AF37;stroke-width:0.5;" width="122.5986" x="380.7" y="975.0638"/><rect fill="#1A365D" height="10" style="stroke:#D4AF37;stroke-width:0.5;" width="15" x="483.2986" y="980.0638"/><rect fill="#1A365D" height="2" style="stroke:#D4AF37;stroke-width:0.5;" width="4" x="481.2986" y="982.0638"/><rect fill="#1A365D" height="2" style="stroke:#D4AF37;stroke-width:0.5;" width="4" x="481.2986" y="986.0638"/><text fill="#FFFFFF" font-family="sans-serif" font-size="14" lengthAdjust="spacing" textLength="82.5986" x="395.7" y="1008.0589">VPS Ubuntu</text></g><!--entity docker--><g class="entity" data-entity="docker" data-source-line="48" data-uid="ent0023" id="entity_docker"><rect fill="#1A365D" height="46.2969" rx="2.5" ry="2.5" style="stroke:#D4AF37;stroke-width:0.5;" width="159.3076" x="372.35" y="813.7738"/><rect fill="#1A365D" height="10" style="stroke:#D4AF37;stroke-width:0.5;" width="15" x="511.6576" y="818.7738"/><rect fill="#1A365D" height="2" style="stroke:#D4AF37;stroke-width:0.5;" width="4" x="509.6576" y="820.7738"/><rect fill="#1A365D" height="2" style="stroke:#D4AF37;stroke-width:0.5;" width="4" x="509.6576" y="824.7738"/><text fill="#FFFFFF" font-family="sans-serif" font-size="14" lengthAdjust="spacing" textLength="119.3076" x="387.35" y="846.7689">Docker Compose</text></g><!--entity nginx--><g class="entity" data-entity="nginx" data-source-line="49" data-uid="ent0024" id="entity_nginx"><rect fill="#1A365D" height="46.2969" rx="2.5" ry="2.5" style="stroke:#D4AF37;stroke-width:0.5;" width="124.1914" x="212.9" y="813.7738"/><rect fill="#1A365D" height="10" style="stroke:#D4AF37;stroke-width:0.5;" width="15" x="317.0914" y="818.7738"/><rect fill="#1A365D" height="2" style="stroke:#D4AF37;stroke-width:0.5;" width="4" x="315.0914" y="820.7738"/><rect fill="#1A365D" height="2" style="stroke:#D4AF37;stroke-width:0.5;" width="4" x="315.0914" y="824.7738"/><text fill="#FFFFFF" font-family="sans-serif" font-size="14" lengthAdjust="spacing" textLength="84.1914" x="227.9" y="846.7689">Nginx Proxy</text></g><!--entity ssl--><g class="entity" data-entity="ssl" data-source-line="50" data-uid="ent0025" id="entity_ssl"><rect fill="#1A365D" height="46.2969" rx="2.5" ry="2.5" style="stroke:#D4AF37;stroke-width:0.5;" width="122.5986" x="213.7" y="975.0638"/><rect fill="#1A365D" height="10" style="stroke:#D4AF37;stroke-width:0.5;" width="15" x="316.2986" y="980.0638"/><rect fill="#1A365D" height="2" style="stroke:#D4AF37;stroke-width:0.5;" width="4" x="314.2986" y="982.0638"/><rect fill="#1A365D" height="2" style="stroke:#D4AF37;stroke-width:0.5;" width="4" x="314.2986" y="986.0638"/><text fill="#FFFFFF" font-family="sans-serif" font-size="14" lengthAdjust="spacing" textLength="82.5986" x="228.7" y="1008.0589">Certbot SSL</text></g><!--entity cf--><g class="entity" data-entity="cf" data-source-line="54" data-uid="ent0027" id="entity_cf"><rect fill="#1A365D" height="46.2969" rx="2.5" ry="2.5" style="stroke:#D4AF37;stroke-width:0.5;" width="111.7568" x="306.12" y="1121.3638"/><rect fill="#1A365D" height="10" style="stroke:#D4AF37;stroke-width:0.5;" width="15" x="397.8768" y="1126.3638"/><rect fill="#1A365D" height="2" style="stroke:#D4AF37;stroke-width:0.5;" width="4" x="395.8768" y="1128.3638"/><rect fill="#1A365D" height="2" style="stroke:#D4AF37;stroke-width:0.5;" width="4" x="395.8768" y="1132.3638"/><text fill="#FFFFFF" font-family="sans-serif" font-size="14" lengthAdjust="spacing" textLength="71.7568" x="321.12" y="1154.3589">Cloudflare</text></g><!--entity dns--><g class="entity" data-entity="dns" data-source-line="55" data-uid="ent0028" id="entity_dns"><rect fill="#1A365D" height="46.2969" rx="2.5" ry="2.5" style="stroke:#D4AF37;stroke-width:0.5;" width="131.1299" x="38.44" y="1270.6638"/><rect fill="#1A365D" height="10" style="stroke:#D4AF37;stroke-width:0.5;" width="15" x="149.5699" y="1275.6638"/><rect fill="#1A365D" height="2" style="stroke:#D4AF37;stroke-width:0.5;" width="4" x="147.5699" y="1277.6638"/><rect fill="#1A365D" height="2" style="stroke:#D4AF37;stroke-width:0.5;" width="4" x="147.5699" y="1281.6638"/><text fill="#FFFFFF" font-family="sans-serif" font-size="14" lengthAdjust="spacing" textLength="91.1299" x="53.44" y="1303.6589">DNS Records</text></g><!--entity ddos--><g class="entity" data-entity="ddos" data-source-line="56" data-uid="ent0029" id="entity_ddos"><rect fill="#1A365D" height="46.2969" rx="2.5" ry="2.5" style="stroke:#D4AF37;stroke-width:0.5;" width="154.8438" x="204.58" y="1270.6638"/><rect fill="#1A365D" height="10" style="stroke:#D4AF37;stroke-width:0.5;" width="15" x="339.4238" y="1275.6638"/><rect fill="#1A365D" height="2" style="stroke:#D4AF37;stroke-width:0.5;" width="4" x="337.4238" y="1277.6638"/><rect fill="#1A365D" height="2" style="stroke:#D4AF37;stroke-width:0.5;" width="4" x="337.4238" y="1281.6638"/><text fill="#FFFFFF" font-family="sans-serif" font-size="14" lengthAdjust="spacing" textLength="114.8438" x="219.58" y="1303.6589">DDoS Protection</text></g><!--entity email--><g class="entity" data-entity="email" data-source-line="57" data-uid="ent0030" id="entity_email"><rect fill="#1A365D" height="46.2969" rx="2.5" ry="2.5" style="stroke:#D4AF37;stroke-width:0.5;" width="137.5967" x="394.2" y="1270.6638"/><rect fill="#1A365D" height="10" style="stroke:#D4AF37;stroke-width:0.5;" width="15" x="511.7967" y="1275.6638"/><rect fill="#1A365D" height="2" style="stroke:#D4AF37;stroke-width:0.5;" width="4" x="509.7967" y="1277.6638"/><rect fill="#1A365D" height="2" style="stroke:#D4AF37;stroke-width:0.5;" width="4" x="509.7967" y="1281.6638"/><text fill="#FFFFFF" font-family="sans-serif" font-size="14" lengthAdjust="spacing" textLength="97.5967" x="409.2" y="1303.6589">Email Routing</text></g><!--entity online--><g class="entity" data-entity="online" data-source-line="61" data-uid="ent0032" id="entity_online"><ellipse cx="103.9993" cy="1449.3236" fill="#F1F1F1" rx="69.8493" ry="16.3699" style="stroke:#181818;stroke-width:0.5;"/><text fill="#FFFFFF" font-family="sans-serif" font-size="14" lengthAdjust="spacing" textLength="105.998" x="51.0002" y="1453.972">Sistema Online</text></g><!--entity docs--><g class="entity" data-entity="docs" data-source-line="62" data-uid="ent0033" id="entity_docs"><ellipse cx="101.0003" cy="1553.8098" fill="#F1F1F1" rx="69.8303" ry="16.3661" style="stroke:#181818;stroke-width:0.5;"/><text fill="#FFFFFF" font-family="sans-serif" font-size="14" lengthAdjust="spacing" textLength="105.9502" x="48.0252" y="1558.4582">Documentacao</text></g><!--entity train--><g class="entity" data-entity="train" data-source-line="63" data-uid="ent0034" id="entity_train"><ellipse cx="268.9968" cy="1553.8131" fill="#F1F1F1" rx="63.4968" ry="15.0994" style="stroke:#181818;stroke-width:0.5;"/><text fill="#FFFFFF" font-family="sans-serif" font-size="14" lengthAdjust="spacing" textLength="89.4414" x="224.2761" y="1558.4616">Treinamento</text></g><!--entity cliente--><g class="entity" data-entity="cliente" data-source-line="17" data-uid="ent0002" id="entity_cliente"><ellipse cx="930.0018" cy="67.5938" fill="#D4AF37" rx="8" ry="8" style="stroke:#181818;stroke-width:0.5;"/><path d="M930.0018,75.5938 L930.0018,102.5938 M917.0018,83.5938 L943.0018,83.5938 M930.0018,102.5938 L917.0018,117.5938 M930.0018,102.5938 L943.0018,117.5938" fill="none" style="stroke:#181818;stroke-width:0.5;"/><text fill="#FFFFFF" font-family="sans-serif" font-size="14" lengthAdjust="spacing" textLength="49.1436" x="905.43" y="132.0889">Cliente</text></g><!--entity usuario--><g class="entity" data-entity="usuario" data-source-line="18" data-uid="ent0003" id="entity_usuario"><ellipse cx="268.9992" cy="1673.6738" fill="#FFFFFF" rx="8" ry="8" style="stroke:#181818;stroke-width:0.5;"/><path d="M268.9992,1681.6738 L268.9992,1708.6738 M255.9992,1689.6738 L281.9992,1689.6738 M268.9992,1708.6738 L255.9992,1723.6738 M268.9992,1708.6738 L281.9992,1723.6738" fill="none" style="stroke:#181818;stroke-width:0.5;"/><text fill="#FFFFFF" font-family="sans-serif" font-size="14" lengthAdjust="spacing" textLength="90.9385" x="223.53" y="1738.1689">Usuario Final</text></g><g class="entity" data-entity="GMN60" data-source-line="98" data-uid="ent0061" id="entity_GMN60"><path d="M391.7,1422.2138 L391.7,1476.4481 L612.2957,1476.4481 L612.2957,1432.2138 L602.2957,1422.2138 L391.7,1422.2138" fill="#0A192F" style="stroke:#D4AF37;stroke-width:0.5;"/><path d="M602.2957,1422.2138 L602.2957,1432.2138 L612.2957,1432.2138 L602.2957,1422.2138" fill="#0A192F" style="stroke:#D4AF37;stroke-width:1;"/><text fill="#D4AF37" font-family="sans-serif" font-size="14" lengthAdjust="spacing" textLength="199.5957" x="397.7" y="1440.2089">TEMPO MEDIO: 2-4 semanas</text><text fill="#FFFFFF" font-family="sans-serif" font-size="12" lengthAdjust="spacing" textLength="80.9648" x="397.7" y="1454.6493">Do zero ao ar</text><text fill="#FFFFFF" font-family="sans-serif" font-size="12" lengthAdjust="spacing" textLength="117.7031" x="397.7" y="1468.618">Sem intermediarios</text></g><g class="entity" data-entity="GMN63" data-source-line="104" data-uid="ent0064" id="entity_GMN63"><path d="M38.4,819.1138 L38.4,854.7231 L177.607,854.7231 L177.607,829.1138 L167.607,819.1138 L38.4,819.1138" fill="#0A192F" style="stroke:#D4AF37;stroke-width:0.5;"/><path d="M167.607,819.1138 L167.607,829.1138 L177.607,829.1138 L167.607,819.1138" fill="#0A192F" style="stroke:#D4AF37;stroke-width:1;"/><text fill="#D4AF37" font-family="sans-serif" font-size="12" lengthAdjust="spacing" textLength="118.207" x="44.4" y="835.2524">TypeScript em tudo</text><text fill="#FFFFFF" font-family="sans-serif" font-size="10" lengthAdjust="spacing" textLength="107.2559" x="44.4" y="847.3647">Type-safe end-to-end</text></g><!--link cliente to prob--><g class="link" data-entity-1="cliente" data-entity-2="prob" data-source-line="67" data-uid="lnk35" id="link_cliente_prob"><path d="M930,135.6438 C930,166.3638 930,202.6638 930,227.1138" fill="none" id="cliente-to-prob" style="stroke:#D4AF37;stroke-width:1;"/><polygon fill="#D4AF37" points="930,233.1138,934,224.1138,930,228.1138,926,224.1138,930,233.1138" style="stroke:#D4AF37;stroke-width:1;"/><text fill="#D4AF37" font-family="sans-serif" font-size="13" lengthAdjust="spacing" textLength="127.5752" x="931" y="178.4506">Define necessidade</text></g><!--link prob to req--><g class="link" data-entity-1="prob" data-entity-2="req" data-source-line="68" data-uid="lnk36" id="link_prob_req"><path d="M930,274.5638 C930,295.9338 930,323.7338 930,344.8538" fill="none" id="prob-to-req" style="stroke:#D4AF37;stroke-width:1;"/><polygon fill="#D4AF37" points="930,350.8538,934,341.8538,930,345.8538,926,341.8538,930,350.8538" style="stroke:#D4AF37;stroke-width:1;"/><text fill="#FFFFFF" font-family="sans-serif" font-size="13" lengthAdjust="spacing" textLength="47.0933" x="931" y="317.1706">Analise</text></g><!--link req to arq--><g class="link" data-entity-1="req" data-entity-2="arq" data-source-line="69" data-uid="lnk37" id="link_req_arq"><path d="M930,391.2238 C930,412.3638 930,440.2238 930,461.8338" fill="none" id="req-to-arq" style="stroke:#D4AF37;stroke-width:1;"/><polygon fill="#D4AF37" points="930,467.8338,934,458.8338,930,462.8338,926,458.8338,930,467.8338" style="stroke:#D4AF37;stroke-width:1;"/><text fill="#FFFFFF" font-family="sans-serif" font-size="13" lengthAdjust="spacing" textLength="57.2114" x="931" y="434.0406">Desenho</text></g><!--link arq to nextapp--><g class="link" data-entity-1="arq" data-entity-2="nextapp" data-source-line="71" data-uid="lnk38" id="link_arq_nextapp"><path d="M854.98,502.4238 C828.18,510.0638 799.56,522.4338 779,542.4738 C743.34,577.2138 731.0011,630.8959 726.3111,663.2359" fill="none" id="arq-to-nextapp" style="stroke:#D4AF37;stroke-width:1;"/><polygon fill="#D4AF37" points="725.45,669.1738,730.7003,660.841,726.1676,664.2255,722.7831,659.6928,725.45,669.1738" style="stroke:#D4AF37;stroke-width:1;"/><text fill="#D4AF37" font-family="sans-serif" font-size="13" lengthAdjust="spacing" textLength="141.0576" x="780" y="555.5406">Implementa Frontend</text></g><!--link arq to nest--><g class="link" data-entity-1="arq" data-entity-2="nest" data-source-line="72" data-uid="lnk39" id="link_arq_nest"><path d="M930,510.6438 C930,548.5438 930,623.5038 930,663.0038" fill="none" id="arq-to-nest" style="stroke:#D4AF37;stroke-width:1;"/><polygon fill="#D4AF37" points="930,669.0038,934,660.0038,930,664.0038,926,660.0038,930,669.0038" style="stroke:#D4AF37;stroke-width:1;"/><text fill="#D4AF37" font-family="sans-serif" font-size="13" lengthAdjust="spacing" textLength="138.5059" x="931" y="555.5406">Implementa Backend</text></g><!--link arq to pg--><g class="link" data-entity-1="arq" data-entity-2="pg" data-source-line="73" data-uid="lnk40" id="link_arq_pg"><path d="M1017.42,497.5738 C1072.42,506.3438 1141.68,525.5338 1189,567.4738 C1234.03,607.3838 1243,631.4538 1243,691.6238 C1243,691.6238 1243,691.6238 1243,999.2138 C1243,1053.5038 1196.6296,1093.3431 1158.4696,1117.8331" fill="none" id="arq-to-pg" style="stroke:#D4AF37;stroke-width:1;"/><polygon fill="#D4AF37" points="1153.42,1121.0738,1163.1548,1119.5791,1157.628,1118.3732,1158.8339,1112.8464,1153.42,1121.0738" style="stroke:#D4AF37;stroke-width:1;"/><text fill="#D4AF37" font-family="sans-serif" font-size="13" lengthAdjust="spacing" textLength="92.0854" x="1244" y="841.4806">Modela Dados</text></g><!--link nextapp to react--><g class="link" data-entity-1="nextapp" data-entity-2="react" data-source-line="75" data-uid="lnk41" id="link_nextapp_react"><path d="M723,716.1738 C723,742.8138 723,780.8738 723,807.4738" fill="none" id="nextapp-to-react" style="stroke:#D4AF37;stroke-width:1;"/><polygon fill="#D4AF37" points="723,813.4738,727,804.4738,723,808.4738,719,804.4738,723,813.4738" style="stroke:#D4AF37;stroke-width:1;"/></g><!--link react to tw--><g class="link" data-entity-1="react" data-entity-2="tw" data-source-line="76" data-uid="lnk42" id="link_react_tw"><path d="M723,860.4038 C723,890.6738 723,938.2438 723,968.5838" fill="none" id="react-to-tw" style="stroke:#D4AF37;stroke-width:1;"/><polygon fill="#D4AF37" points="723,974.5838,727,965.5838,723,969.5838,719,965.5838,723,974.5838" style="stroke:#D4AF37;stroke-width:1;"/></g><!--link nest to auth--><g class="link" data-entity-1="nest" data-entity-2="auth" data-source-line="77" data-uid="lnk43" id="link_nest_auth"><path d="M930,716.1738 C930,742.8138 930,780.8738 930,807.4738" fill="none" id="nest-to-auth" style="stroke:#D4AF37;stroke-width:1;"/><polygon fill="#D4AF37" points="930,813.4738,934,804.4738,930,808.4738,926,804.4738,930,813.4738" style="stroke:#D4AF37;stroke-width:1;"/></g><!--link nest to logic--><g class="link" data-entity-1="nest" data-entity-2="logic" data-source-line="78" data-uid="lnk44" id="link_nest_logic"><path d="M957.1,716.1738 C989.11,742.8138 1037.4583,783.0355 1069.4183,809.6355" fill="none" id="nest-to-logic" style="stroke:#D4AF37;stroke-width:1;"/><polygon fill="#D4AF37" points="1074.03,813.4738,1069.6713,804.6419,1070.1869,810.2752,1064.5536,810.7908,1074.03,813.4738" style="stroke:#D4AF37;stroke-width:1;"/></g><!--link logic to prisma--><g class="link" data-entity-1="logic" data-entity-2="prisma" data-source-line="79" data-uid="lnk45" id="link_logic_prisma"><path d="M1101,860.4038 C1101,890.6738 1101,938.2438 1101,968.5838" fill="none" id="logic-to-prisma" style="stroke:#D4AF37;stroke-width:1;"/><polygon fill="#D4AF37" points="1101,974.5838,1105,965.5838,1101,969.5838,1097,965.5838,1101,974.5838" style="stroke:#D4AF37;stroke-width:1;"/></g><!--link prisma to pg--><g class="link" data-entity-1="prisma" data-entity-2="pg" data-source-line="80" data-uid="lnk46" id="link_prisma_pg"><path d="M1102.88,1021.7638 C1105.13,1048.8738 1108.3925,1088.1044 1110.6425,1115.1444" fill="none" id="prisma-to-pg" style="stroke:#D4AF37;stroke-width:1;"/><polygon fill="#D4AF37" points="1111.14,1121.1238,1114.3799,1111.8231,1110.7254,1116.141,1106.4075,1112.4864,1111.14,1121.1238" style="stroke:#D4AF37;stroke-width:1;"/></g><!--link prisma to redis--><g class="link" data-entity-1="prisma" data-entity-2="redis" data-source-line="81" data-uid="lnk47" id="link_prisma_redis"><path d="M1078.03,1021.7638 C1050.41,1048.8738 1008.6313,1089.8802 981.0913,1116.9202" fill="none" id="prisma-to-redis" style="stroke:#D4AF37;stroke-width:1;"/><polygon fill="#D4AF37" points="976.81,1121.1238,986.0344,1117.6726,980.3778,1117.6208,980.4296,1111.9641,976.81,1121.1238" style="stroke:#D4AF37;stroke-width:1;"/></g><!--link nextapp to nginx--><g class="link" data-entity-1="nextapp" data-entity-2="nginx" data-source-line="83" data-uid="lnk48" id="link_nextapp_nginx"><path d="M662.46,714.9338 C661.3,715.2238 660.15,715.5038 659,715.7738 C525.26,746.8738 473.43,701.2838 355,770.7738 C334.61,782.7338 318.4513,795.6828 303.2413,809.2928" fill="none" id="nextapp-to-nginx" style="stroke:#D4AF37;stroke-width:1;"/><polygon fill="#D4AF37" points="298.77,813.2938,308.1442,810.2732,302.4961,809.9596,302.8096,804.3115,298.77,813.2938" style="stroke:#D4AF37;stroke-width:1;"/><text fill="#FFFFFF" font-family="sans-serif" font-size="13" lengthAdjust="spacing" textLength="32.6333" x="402.23" y="758.8406">Build</text></g><!--link nest to docker--><g class="link" data-entity-1="nest" data-entity-2="docker" data-source-line="84" data-uid="lnk49" id="link_nest_docker"><path d="M873.97,705.3338 C811.43,718.9238 707.5,743.0338 620,770.7738 C580.93,783.1538 543.412,797.6487 510.662,811.0687" fill="none" id="nest-to-docker" style="stroke:#D4AF37;stroke-width:1;"/><polygon fill="#D4AF37" points="505.11,813.3438,514.9546,813.6325,509.7366,811.4479,511.9212,806.2299,505.11,813.3438" style="stroke:#D4AF37;stroke-width:1;"/><text fill="#FFFFFF" font-family="sans-serif" font-size="13" lengthAdjust="spacing" textLength="63.5273" x="705.21" y="758.8406">Container</text></g><!--link docker to vps--><g class="link" data-entity-1="docker" data-entity-2="vps" data-source-line="85" data-uid="lnk50" id="link_docker_vps"><path d="M450.59,860.4038 C448.69,890.6738 445.707,938.2556 443.797,968.5956" fill="none" id="docker-to-vps" style="stroke:#D4AF37;stroke-width:1;"/><polygon fill="#D4AF37" points="443.42,974.5838,447.9776,965.8528,443.7341,969.5936,439.9934,965.3502,443.42,974.5838" style="stroke:#D4AF37;stroke-width:1;"/><text fill="#D4AF37" font-family="sans-serif" font-size="13" lengthAdjust="spacing" textLength="45.519" x="449.48" y="905.1306">Deploy</text></g><!--link nginx to ssl--><g class="link" data-entity-1="nginx" data-entity-2="ssl" data-source-line="86" data-uid="lnk51" id="link_nginx_ssl"><path d="M275,860.4038 C275,890.6738 275,938.2438 275,968.5838" fill="none" id="nginx-to-ssl" style="stroke:#D4AF37;stroke-width:1;"/><polygon fill="#D4AF37" points="275,974.5838,279,965.5838,275,969.5838,271,965.5838,275,974.5838" style="stroke:#D4AF37;stroke-width:1;"/><text fill="#FFFFFF" font-family="sans-serif" font-size="13" lengthAdjust="spacing" textLength="41.7485" x="276" y="905.1306">HTTPS</text></g><!--link vps to cf--><g class="link" data-entity-1="vps" data-entity-2="cf" data-source-line="87" data-uid="lnk52" id="link_vps_cf"><path d="M429.5,1021.7638 C414.47,1048.8738 392.3091,1088.8362 377.3191,1115.8762" fill="none" id="vps-to-cf" style="stroke:#D4AF37;stroke-width:1;"/><polygon fill="#D4AF37" points="374.41,1121.1238,382.272,1115.1917,376.8342,1116.7508,375.2752,1111.313,374.41,1121.1238" style="stroke:#D4AF37;stroke-width:1;"/><text fill="#D4AF37" font-family="sans-serif" font-size="13" lengthAdjust="spacing" textLength="36.5244" x="412.52" y="1066.4306">Proxy</text></g><!--link cf to dns--><g class="link" data-entity-1="cf" data-entity-2="dns" data-source-line="88" data-uid="lnk53" id="link_cf_dns"><path d="M322.53,1168.0438 C273.98,1195.7638 197.2303,1239.5784 148.6703,1267.3084" fill="none" id="cf-to-dns" style="stroke:#D4AF37;stroke-width:1;"/><polygon fill="#D4AF37" points="143.46,1270.2838,153.259,1269.2943,147.8019,1267.8043,149.2919,1262.3472,143.46,1270.2838" style="stroke:#D4AF37;stroke-width:1;"/></g><!--link cf to ddos--><g class="link" data-entity-1="cf" data-entity-2="ddos" data-source-line="89" data-uid="lnk54" id="link_cf_ddos"><path d="M349.85,1167.8838 C334.81,1195.5738 312.2139,1237.1714 297.1239,1264.9514" fill="none" id="cf-to-ddos" style="stroke:#D4AF37;stroke-width:1;"/><polygon fill="#D4AF37" points="294.26,1270.2238,302.0708,1264.2245,296.6466,1265.8301,295.041,1260.4059,294.26,1270.2238" style="stroke:#D4AF37;stroke-width:1;"/></g><!--link cf to email--><g class="link" data-entity-1="cf" data-entity-2="email" data-source-line="90" data-uid="lnk55" id="link_cf_email"><path d="M377.34,1167.8838 C396.32,1195.5738 425.0767,1237.4954 444.1267,1265.2754" fill="none" id="cf-to-email" style="stroke:#D4AF37;stroke-width:1;"/><polygon fill="#D4AF37" points="447.52,1270.2238,445.729,1260.5391,444.6923,1266.1002,439.1312,1265.0635,447.52,1270.2238" style="stroke:#D4AF37;stroke-width:1;"/></g><!--link dns to online--><g class="link" data-entity-1="dns" data-entity-2="online" data-source-line="92" data-uid="lnk56" id="link_dns_online"><path d="M104,1317.1338 C104,1348.5638 104,1399.0938 104,1426.5338" fill="none" id="dns-to-online" style="stroke:#D4AF37;stroke-width:1;"/><polygon fill="#D4AF37" points="104,1432.5338,108,1423.5338,104,1427.5338,100,1423.5338,104,1432.5338" style="stroke:#D4AF37;stroke-width:1;"/><text fill="#D4AF37" font-family="sans-serif" font-size="13" lengthAdjust="spacing" textLength="48.7056" x="105" y="1362.0206">Go Live</text></g><!--link online to docs--><g class="link" data-entity-1="online" data-entity-2="docs" data-source-line="93" data-uid="lnk57" id="link_online_docs"><path d="M103.54,1465.8938 C102.98,1485.1538 102.2069,1511.7764 101.6369,1531.1064" fill="none" id="online-to-docs" style="stroke:#D4AF37;stroke-width:1;"/><polygon fill="#D4AF37" points="101.46,1537.1038,105.7235,1528.2256,101.6074,1532.1059,97.727,1527.9898,101.46,1537.1038" style="stroke:#D4AF37;stroke-width:1;"/></g><!--link online to train--><g class="link" data-entity-1="online" data-entity-2="train" data-source-line="94" data-uid="lnk58" id="link_online_train"><path d="M127.64,1465.0138 C159.63,1484.8838 211.163,1516.8883 242.143,1536.1283" fill="none" id="online-to-train" style="stroke:#D4AF37;stroke-width:1;"/><polygon fill="#D4AF37" points="247.24,1539.2938,241.7048,1531.1475,242.9925,1536.6558,237.4841,1537.9435,247.24,1539.2938" style="stroke:#D4AF37;stroke-width:1;"/></g><!--link train to usuario--><g class="link" data-entity-1="train" data-entity-2="usuario" data-source-line="95" data-uid="lnk59" id="link_train_usuario"><path d="M269,1569.2238 C269,1591.1938 269,1627.7738 269,1658.8738" fill="none" id="train-to-usuario" style="stroke:#D4AF37;stroke-width:1;"/><polygon fill="#D4AF37" points="269,1664.8738,273,1655.8738,269,1659.8738,265,1655.8738,269,1664.8738" style="stroke:#D4AF37;stroke-width:1;"/><text fill="#D4AF37" font-family="sans-serif" font-size="13" lengthAdjust="spacing" textLength="45.5381" x="270" y="1631.2406">Acesso</text></g><!--link delivery to GMN60--><g class="link" data-entity-1="delivery" data-entity-2="GMN60" data-source-line="98" data-uid="lnk62" id="link_delivery_GMN60"><path d="M364.0162,1449.3238 C364.0612,1449.3238 364.1062,1449.3238 364.1512,1449.3238 C364.2413,1449.3238 364.3313,1449.3238 364.4213,1449.3238 C364.7815,1449.3238 365.1416,1449.3238 365.5017,1449.3238 C368.3828,1449.3238 371.2644,1449.3238 374.1463,1449.3238 C379.91,1449.3238 385.675,1449.3238 391.44,1449.3238" fill="none" id="delivery-GMN60" style="stroke:#D4AF37;stroke-width:1;stroke-dasharray:7,7;"/></g><!--link dev to GMN63--><g class="link" data-entity-1="dev" data-entity-2="GMN63" data-source-line="104" data-uid="lnk65" id="link_dev_GMN63"><path d="M579.8383,693.9269 C579.6559,693.9349 579.4706,693.9431 579.2824,693.9514 C578.906,693.9682 578.5181,693.9857 578.1188,694.004 C577.3202,694.0406 576.4761,694.0804 575.5876,694.1235 C568.4795,694.4684 558.5273,695.0283 546.2816,695.9134 C521.79,697.6838 488.1238,700.755 449.685,706.0088 C372.8075,716.5163 276.84,735.7538 197,770.7738 C169.99,782.6138 143.27,803.7838 126.27,818.7738" fill="none" id="dev-GMN63" style="stroke:#D4AF37;stroke-width:1;stroke-dasharray:7,7;"/></g><!--SRC=[ZLLRRzis57xthpZmWArxyDQasQre3VYYj1visREKO43G1rga5AuqgP1K4dVOVz_XHOgRn6w2G2RrdVivtv7vp6LDDDd2XXIVAwqQIITAA0tVlIOdVvoMFTD9K5QIHjXp9MqKAVtVdiX8QtKNGNf6oZU_xO5hLbWYAy76ZrsTa3U__aAV5LMQCdt8ufHOiY7c1GOxoQFs9a8rzDl6WjXnIsfRAycaVO6rJlIenLJPfta-wP6NUiPEpt8h6BmhiNbGEEXzFs9zCFmBUzy__Rq_7EcRXbjc6qsmtP18grb5i1r4lFlPwGvxFL9ODDoV28unipuG0qKuTzwYo8LfYEOAphaamWisyKqxEJtTDXhwqoIRBCV9EXzvKSfDeMwPthLPmhyzW5ShhJQ2RGdCABha9Iy8LJywXHeH9x5cc8FXLXbOa9eXR3oksOs3zrESCiFaDQ742n1zq_llSKX9UhcSNyuMIPelGrpizgk8Qkm9gL3uN6DzcAHUgcGU1BXAsRtzwHy3exh-v129TrBN0SJ25lPX0iod42Y-37XEkBZZaa9cTu85sDuXXd7kkNPpqNhUx7asziyCHgjPT6oYrL5Zhs6XQ2EOHmZU0p9k34Sv0tDLySA3mfrQZpJI24k39vYJ7TEXAflMwqePMscM_JNtwdNLPeeDXGafhbbC4kzHGtE33Lsk5q73Nxr7z5auha5_bfwlHqcMho_oYtKO42vBRA7pUdMvok1YqqZRU0ktjRDyDLLO5HsgQu9NwbyvCAsul0USfljTg8wxEs32jDqe2raM4Z16xCKncQRmFKpJBCmzbI40ln5AGNHmKvJUVvgvHOPi38sZCeGrLPbpR77Ek981mY5rMBB5XiDQDPRBoYFClNaqbZYBw-H3f0aJFB0aS2-m9EF6Ef8ifS1- -kbM_kX0h4kpnMaZ1GdCmQeuxwzopP2f3WhlhIPSEjy_m6IP9dylammF2vYFniaywxMi7mo6ddpmzldzCfoo4btZ01OuMfmIojfbujMSFfBpYNhO4RYKS7jmq-auKQU2T3se4eYj7dQM3ZgHV0SZdMrhN2wkDj3IkRNnOCBOb-X7JZvMhwk3oiX89d0fkOtLHTv678ha5eD_-Zjk0X-DhuRZS7SBfFNFs1xFgV0JuzY_1JP-vSmJuc21nmqNNMwTsq2lWqeJV8aJnNIh6EMTAdBsoFpKGkqwRpumfuFKFEZhOvwlibR56NSAHNdGXzy4hJpA-NIGiEtH4JIU0oLxYFfh8DP1mnyKp96XhUae7Qjbzk-1Rlxfx-t7yf3baQFJmunBt2YWUNLjGPNTNa1U7_ledvprXtcoM2rXaKndoxTmEZW3WnbAqiqWF5_Yri8fDaZ15wOL4FpNBrVBs1Qtk6LwY-FdKkrS8d70vHEpmdrirJQaTVkjZD1mlgjPLcXUMsmMs8Qg5mRrEkWE3C4FE0Oni6gmH-8khFy1]--></g></svg>